G04*
G04 #@! TF.GenerationSoftware,Altium Limited,Altium Designer,18.0.11 (651)*
G04*
G04 Layer_Color=16711935*
%FSLAX25Y25*%
%MOIN*%
G70*
G01*
G75*
%ADD17C,0.00800*%
%ADD20C,0.00394*%
%ADD49C,0.05918*%
%ADD50C,0.12611*%
%ADD51C,0.05524*%
%ADD52C,0.08083*%
%ADD53R,0.08083X0.08083*%
%ADD54C,0.06706*%
%ADD55R,0.06706X0.06706*%
%ADD56C,0.08674*%
%ADD57C,0.07099*%
%ADD58R,0.06115X0.06115*%
%ADD59C,0.06115*%
%ADD60C,0.05800*%
D17*
X319799Y429945D02*
Y448055D01*
X307201Y429945D02*
Y448055D01*
Y429945D02*
X319799D01*
X307201Y448055D02*
X319799D01*
D20*
X311531Y439000D02*
X315469D01*
X313500Y437032D02*
Y440969D01*
X211311Y198488D02*
Y209512D01*
X227059Y198488D02*
Y209512D01*
X211311D02*
X227059D01*
X211311Y198488D02*
X227059D01*
X217216Y204000D02*
X221153D01*
X219185Y202031D02*
Y205968D01*
X280335Y167276D02*
X284665D01*
X280335Y176724D02*
X284665D01*
X280335Y167276D02*
Y176724D01*
X284665Y167276D02*
Y176724D01*
X282500Y170130D02*
Y173870D01*
X280630Y172000D02*
X284370D01*
X284835Y131961D02*
X289165D01*
X284835Y141410D02*
X289165D01*
X284835Y131961D02*
Y141410D01*
X289165Y131961D02*
Y141410D01*
X287000Y134815D02*
Y138555D01*
X285130Y136685D02*
X288870D01*
X498835Y270224D02*
X503165D01*
X498835Y260776D02*
X503165D01*
Y270224D01*
X498835Y260776D02*
Y270224D01*
X501000Y263630D02*
Y267370D01*
X499130Y265500D02*
X502870D01*
X313335Y133276D02*
X317665D01*
X313335Y142724D02*
X317665D01*
X313335Y133276D02*
Y142724D01*
X317665Y133276D02*
Y142724D01*
X315500Y136130D02*
Y139870D01*
X313630Y138000D02*
X317370D01*
X469835Y239276D02*
X474165D01*
X469835Y248724D02*
X474165D01*
X469835Y239276D02*
Y248724D01*
X474165Y239276D02*
Y248724D01*
X472000Y242130D02*
Y245870D01*
X470130Y244000D02*
X473870D01*
X342335Y132276D02*
X346665D01*
X342335Y141724D02*
X346665D01*
X342335Y132276D02*
Y141724D01*
X346665Y132276D02*
Y141724D01*
X344500Y135130D02*
Y138870D01*
X342630Y137000D02*
X346370D01*
X654461Y443835D02*
Y448165D01*
X663909Y443835D02*
Y448165D01*
X654461D02*
X663909D01*
X654461Y443835D02*
X663909D01*
X657315Y446000D02*
X661055D01*
X659185Y444130D02*
Y447870D01*
X519724Y298335D02*
Y302665D01*
X510276Y298335D02*
Y302665D01*
Y298335D02*
X519724D01*
X510276Y302665D02*
X519724D01*
X513130Y300500D02*
X516870D01*
X515000Y298630D02*
Y302370D01*
X271591Y469835D02*
Y474165D01*
X281039Y469835D02*
Y474165D01*
X271591D02*
X281039D01*
X271591Y469835D02*
X281039D01*
X274445Y472000D02*
X278185D01*
X276315Y470130D02*
Y473870D01*
X345224Y427835D02*
Y432165D01*
X335776Y427835D02*
Y432165D01*
Y427835D02*
X345224D01*
X335776Y432165D02*
X345224D01*
X338630Y430000D02*
X342370D01*
X340500Y428130D02*
Y431870D01*
X307776Y463835D02*
Y468165D01*
X317224Y463835D02*
Y468165D01*
X307776D02*
X317224D01*
X307776Y463835D02*
X317224D01*
X310630Y466000D02*
X314370D01*
X312500Y464130D02*
Y467870D01*
X349276Y440835D02*
Y445165D01*
X358724Y440835D02*
Y445165D01*
X349276D02*
X358724D01*
X349276Y440835D02*
X358724D01*
X352130Y443000D02*
X355870D01*
X354000Y441130D02*
Y444870D01*
X270311Y280988D02*
Y292012D01*
X286059Y280988D02*
Y292012D01*
X270311D02*
X286059D01*
X270311Y280988D02*
X286059D01*
X276217Y286500D02*
X280153D01*
X278185Y284531D02*
Y288469D01*
X473811Y178488D02*
Y189512D01*
X489559Y178488D02*
Y189512D01*
X473811D02*
X489559D01*
X473811Y178488D02*
X489559D01*
X479716Y184000D02*
X483653D01*
X481685Y182032D02*
Y185968D01*
X587941Y171488D02*
Y182512D01*
X603689Y171488D02*
Y182512D01*
X587941D02*
X603689D01*
X587941Y171488D02*
X603689D01*
X593847Y177000D02*
X597784D01*
X595815Y175031D02*
Y178969D01*
X381126Y154988D02*
Y166012D01*
X396874Y154988D02*
Y166012D01*
X381126D02*
X396874D01*
X381126Y154988D02*
X396874D01*
X387032Y160500D02*
X390968D01*
X389000Y158531D02*
Y162469D01*
X648126Y466488D02*
Y477512D01*
X663874Y466488D02*
Y477512D01*
X648126D02*
X663874D01*
X648126Y466488D02*
X663874D01*
X654032Y472000D02*
X657969D01*
X656000Y470031D02*
Y473969D01*
X489126Y379488D02*
Y390512D01*
X504874Y379488D02*
Y390512D01*
X489126D02*
X504874D01*
X489126Y379488D02*
X504874D01*
X495031Y385000D02*
X498969D01*
X497000Y383032D02*
Y386968D01*
X611811Y234488D02*
Y245512D01*
X627559Y234488D02*
Y245512D01*
X611811D02*
X627559D01*
X611811Y234488D02*
X627559D01*
X617717Y240000D02*
X621654D01*
X619685Y238032D02*
Y241968D01*
X272150Y336543D02*
X315850D01*
X272150Y401504D02*
X315850D01*
X272150Y336543D02*
Y401504D01*
X315850Y336543D02*
Y401504D01*
X294000Y367055D02*
Y370992D01*
X292032Y369024D02*
X295969D01*
X566626Y304260D02*
Y311740D01*
X582374Y304260D02*
Y311740D01*
X566626D02*
X582374D01*
X566626Y304260D02*
X582374D01*
X572532Y308000D02*
X576469D01*
X574500Y306031D02*
Y309968D01*
X559626Y372760D02*
Y380240D01*
X575374Y372760D02*
Y380240D01*
X559626D02*
X575374D01*
X559626Y372760D02*
X575374D01*
X565531Y376500D02*
X569468D01*
X567500Y374532D02*
Y378468D01*
X560626Y342260D02*
Y349740D01*
X576374Y342260D02*
Y349740D01*
X560626D02*
X576374D01*
X560626Y342260D02*
X576374D01*
X566532Y346000D02*
X570469D01*
X568500Y344032D02*
Y347969D01*
X528441Y403760D02*
Y411240D01*
X544189Y403760D02*
Y411240D01*
X528441D02*
X544189D01*
X528441Y403760D02*
X544189D01*
X534346Y407500D02*
X538283D01*
X536315Y405532D02*
Y409469D01*
D49*
X124874Y438378D02*
D03*
Y446252D02*
D03*
Y454126D02*
D03*
X118874Y432354D02*
D03*
Y442197D02*
D03*
Y450071D02*
D03*
Y459913D02*
D03*
D50*
X111000Y420268D02*
D03*
Y472000D02*
D03*
D51*
X263500Y127000D02*
D03*
X243500Y127000D02*
D03*
X560000Y151500D02*
D03*
Y171500D02*
D03*
X658500Y359000D02*
D03*
Y379000D02*
D03*
X652000Y154500D02*
D03*
Y174500D02*
D03*
X626000Y356500D02*
D03*
Y376500D02*
D03*
X349500Y299500D02*
D03*
Y319500D02*
D03*
X334000Y178000D02*
D03*
Y198000D02*
D03*
X334500Y383000D02*
D03*
X334500Y353000D02*
D03*
X363500Y184500D02*
D03*
Y214500D02*
D03*
X244000Y357000D02*
D03*
Y387000D02*
D03*
X394000Y330000D02*
D03*
X394000Y300000D02*
D03*
X430500Y154500D02*
D03*
Y184500D02*
D03*
X392500Y236500D02*
D03*
Y266500D02*
D03*
X554000Y422500D02*
D03*
Y452500D02*
D03*
X457500Y186000D02*
D03*
X457500Y156000D02*
D03*
X525000Y176500D02*
D03*
X525000Y146500D02*
D03*
X672000Y296000D02*
D03*
Y326000D02*
D03*
X680500Y374000D02*
D03*
Y404000D02*
D03*
X599000Y382500D02*
D03*
Y412500D02*
D03*
X308000Y212500D02*
D03*
X308000Y182500D02*
D03*
D52*
X277500Y213500D02*
D03*
X543000Y296000D02*
D03*
D53*
X277500Y193500D02*
D03*
X543000Y276000D02*
D03*
D54*
X244500Y322000D02*
D03*
Y312000D02*
D03*
Y302000D02*
D03*
Y292000D02*
D03*
Y282000D02*
D03*
X466500Y472500D02*
D03*
X476500D02*
D03*
X466500Y462500D02*
D03*
X476500D02*
D03*
X466500Y452500D02*
D03*
X476500D02*
D03*
X466500Y442500D02*
D03*
X476500D02*
D03*
X466500Y432500D02*
D03*
D55*
X244500Y272000D02*
D03*
X476500Y432500D02*
D03*
D56*
X203500Y438500D02*
D03*
X210000Y451500D02*
D03*
X209000Y426000D02*
D03*
X234000D02*
D03*
X233500Y451000D02*
D03*
X239178Y438500D02*
D03*
D57*
X432000Y252000D02*
D03*
Y262000D02*
D03*
X632000Y292000D02*
D03*
X622000D02*
D03*
X597500Y451000D02*
D03*
X587500D02*
D03*
D58*
X627500Y426500D02*
D03*
D59*
X647185Y426500D02*
D03*
D60*
X201000Y207500D02*
D03*
X199000Y167000D02*
D03*
X225000Y186500D02*
D03*
X605000Y316000D02*
D03*
X370000Y407500D02*
D03*
X386500Y396500D02*
D03*
X370500Y390500D02*
D03*
X397500Y422000D02*
D03*
X337000Y493000D02*
D03*
X333500Y461500D02*
D03*
X266500Y297000D02*
D03*
X312500Y309000D02*
D03*
X397500Y374000D02*
D03*
X429500Y380000D02*
D03*
X391500Y416500D02*
D03*
X392051Y431449D02*
D03*
X353500Y431500D02*
D03*
X308000Y452500D02*
D03*
X271500Y460000D02*
D03*
X674000Y360500D02*
D03*
X634500Y389000D02*
D03*
X562185Y366685D02*
D03*
X564000Y354500D02*
D03*
X430000Y360000D02*
D03*
X434500Y347000D02*
D03*
X328000Y429500D02*
D03*
X345500Y421500D02*
D03*
X325000Y410000D02*
D03*
X369000Y366000D02*
D03*
X365500Y372500D02*
D03*
X371500Y379000D02*
D03*
X440500Y399500D02*
D03*
X470500Y425000D02*
D03*
X677000Y481500D02*
D03*
X682500Y292500D02*
D03*
X297815Y166685D02*
D03*
X659500Y426000D02*
D03*
X565500Y337000D02*
D03*
X542500Y336000D02*
D03*
X431000Y286500D02*
D03*
X230500Y354500D02*
D03*
X183000Y430000D02*
D03*
X377000Y184500D02*
D03*
X415000Y185000D02*
D03*
X557000Y274000D02*
D03*
X576500Y178000D02*
D03*
X523500Y197500D02*
D03*
X483000Y382500D02*
D03*
X357000Y379500D02*
D03*
X344500Y379000D02*
D03*
X265500Y408500D02*
D03*
X264500Y376000D02*
D03*
X297000Y430500D02*
D03*
X324000Y449500D02*
D03*
X342500Y449000D02*
D03*
X341500Y438000D02*
D03*
X397500Y462500D02*
D03*
X362500Y453000D02*
D03*
X445000Y479500D02*
D03*
X355500Y463000D02*
D03*
X363500Y469000D02*
D03*
X359500Y482000D02*
D03*
X408500Y471500D02*
D03*
X496000Y338500D02*
D03*
X421000Y351000D02*
D03*
X464500Y350500D02*
D03*
X368500Y477000D02*
D03*
X404000Y170000D02*
D03*
X415000Y356500D02*
D03*
X410500Y384000D02*
D03*
X396500Y398500D02*
D03*
X367500Y436000D02*
D03*
X533000Y393000D02*
D03*
X533500Y378000D02*
D03*
X355500Y409000D02*
D03*
X267000Y420500D02*
D03*
X304500Y426000D02*
D03*
X651500Y299000D02*
D03*
X487500Y347500D02*
D03*
X421500Y378000D02*
D03*
X270000Y336000D02*
D03*
X297500Y315500D02*
D03*
X449500Y462000D02*
D03*
Y450000D02*
D03*
X530000Y343000D02*
D03*
X278000Y120000D02*
D03*
X229500Y143000D02*
D03*
X315500Y118500D02*
D03*
X215000Y130500D02*
D03*
X209500Y120000D02*
D03*
X603500Y195000D02*
D03*
X529000Y281185D02*
D03*
X516000Y400000D02*
D03*
X509685Y359185D02*
D03*
X343000Y120500D02*
D03*
X514000Y276500D02*
D03*
X424500Y214000D02*
D03*
X191500Y222500D02*
D03*
X245000Y208500D02*
D03*
X179500Y206000D02*
D03*
X618500Y404000D02*
D03*
M02*
