G04*
G04 #@! TF.GenerationSoftware,Altium Limited,Altium Designer,18.0.11 (651)*
G04*
G04 Layer_Physical_Order=1*
G04 Layer_Color=255*
%FSLAX25Y25*%
%MOIN*%
G70*
G01*
G75*
%ADD17C,0.00800*%
%ADD19C,0.01000*%
%ADD20C,0.00394*%
%ADD21R,0.02362X0.01575*%
%ADD22R,0.04331X0.10236*%
%ADD23R,0.03543X0.02756*%
%ADD24R,0.02756X0.03543*%
%ADD25R,0.03543X0.05847*%
%ADD26R,0.04134X0.09449*%
%ADD27R,0.41929X0.35039*%
%ADD28R,0.09449X0.03150*%
%ADD29R,0.03150X0.09449*%
%ADD30R,0.08100X0.02400*%
%ADD31R,0.14961X0.07992*%
%ADD32R,0.07992X0.14961*%
%ADD33R,0.04331X0.06693*%
%ADD34R,0.01968X0.01378*%
%ADD61C,0.02000*%
%ADD62C,0.05118*%
%ADD63C,0.11811*%
%ADD64C,0.04724*%
%ADD65C,0.07284*%
%ADD66R,0.07284X0.07284*%
%ADD67C,0.05906*%
%ADD68R,0.05906X0.05906*%
%ADD69C,0.07874*%
%ADD70C,0.06299*%
%ADD71R,0.05315X0.05315*%
%ADD72C,0.05315*%
%ADD73C,0.05000*%
D17*
X319799Y429945D02*
Y448055D01*
X307201Y429945D02*
Y448055D01*
Y429945D02*
X319799D01*
X307201Y448055D02*
X319799D01*
D19*
X303530Y442500D02*
X304030Y442000D01*
X309000D01*
X662138Y446000D02*
X664500Y443638D01*
X661500Y325000D02*
X672000D01*
X263000Y285000D02*
X274000D01*
X517953Y300500D02*
X520315Y302862D01*
X318000Y439213D02*
X320213D01*
X271000Y460000D02*
Y469638D01*
X273362Y472000D01*
X282500Y169047D02*
X282500Y169047D01*
Y166685D02*
Y169047D01*
Y160500D02*
Y166685D01*
X297815D01*
X282500Y174953D02*
X284862Y177315D01*
X472000Y246953D02*
Y249315D01*
X321388Y440388D02*
Y446455D01*
X320213Y439213D02*
X321388Y440388D01*
X316657Y447843D02*
X320000D01*
X312000Y452500D02*
X316657Y447843D01*
X308000Y452500D02*
X312000D01*
X320000Y447843D02*
X321388Y446455D01*
X359000Y482500D02*
X367260Y490760D01*
X301500Y435500D02*
X309000D01*
X306500Y432500D02*
X309000D01*
X305500Y431500D02*
X306500Y432500D01*
X300500Y434500D02*
X301500Y435500D01*
X302500Y442500D02*
X303530D01*
X297000Y437000D02*
X302500Y442500D01*
X315453Y466000D02*
X315500Y466047D01*
Y482000D01*
X356500Y443000D02*
X359315D01*
X315500Y482000D02*
X325500D01*
X224500Y204000D02*
X225000Y203500D01*
Y186500D02*
Y203500D01*
X199000Y158500D02*
Y166000D01*
X172860Y132360D02*
X199000Y158500D01*
X206000Y175500D02*
X212500Y169000D01*
Y155500D02*
Y169000D01*
X190000Y175500D02*
X206000D01*
X172860Y126490D02*
Y132360D01*
X343500Y493000D02*
X349500Y487000D01*
X340500Y437000D02*
X341500Y438000D01*
X340500Y412843D02*
Y437000D01*
Y412843D02*
X362843Y390500D01*
X613500Y178000D02*
Y239130D01*
X604500Y169000D02*
X613500Y178000D01*
X595500Y169000D02*
X604500D01*
X305500Y430500D02*
Y431500D01*
Y430500D02*
X306000Y430000D01*
X309000Y427500D02*
X323500D01*
X306500Y430000D02*
X309000Y427500D01*
X306000Y430000D02*
X306500D01*
X371504Y395496D02*
X373504D01*
X358000Y409000D02*
X371504Y395496D01*
X355500Y409000D02*
X358000D01*
X378500Y390500D02*
X407100D01*
X373504Y395496D02*
X378500Y390500D01*
X386500Y396500D02*
Y398500D01*
X391000Y403000D01*
X362843Y390500D02*
X370500D01*
X397000Y422500D02*
X397500Y422000D01*
X371500Y422500D02*
X397000D01*
X403000Y427000D02*
X407500Y431500D01*
X353500Y427000D02*
X403000D01*
X353500D02*
Y431500D01*
X336500Y478500D02*
X341237D01*
X343937Y475800D01*
X346342D01*
X347071Y475071D01*
Y473000D02*
Y475071D01*
X339000Y470441D02*
X343441D01*
X346000Y473000D02*
X347071D01*
X343441Y470441D02*
X346000Y473000D01*
X335509Y488754D02*
X345263Y479000D01*
X335509Y488754D02*
Y489400D01*
X345263Y479000D02*
X355828D01*
X330500Y479500D02*
X334500Y483500D01*
X330500Y475000D02*
Y479500D01*
Y475000D02*
X332500Y473000D01*
X344600Y477400D02*
X354600D01*
X338500Y483500D02*
X344600Y477400D01*
X334500Y483500D02*
X338500D01*
X333400Y491509D02*
X335509Y489400D01*
X333400Y491509D02*
Y491600D01*
X330000Y495000D02*
X333400Y491600D01*
X354600Y477400D02*
X356000Y476000D01*
X355828Y479000D02*
X358000Y476828D01*
X337000Y493000D02*
X343500D01*
X337900Y458600D02*
X343663D01*
X335000Y461500D02*
X337900Y458600D01*
X343663D02*
X343763Y458500D01*
X333500Y461500D02*
X335000D01*
X328000Y463000D02*
X329000Y462000D01*
Y457500D02*
Y462000D01*
Y457500D02*
X329500Y457000D01*
X328000Y463000D02*
Y466000D01*
X329500Y457000D02*
X343000D01*
X347071Y459571D02*
Y465323D01*
X346000Y458500D02*
X347071Y459571D01*
X343763Y458500D02*
X346000D01*
X343000Y457000D02*
X345500Y454500D01*
X347071Y470441D02*
X353441D01*
X356000Y473000D01*
X318000Y442000D02*
Y445000D01*
X588000Y189000D02*
X590500Y186500D01*
Y177000D02*
Y186500D01*
X520315Y311815D02*
X525000Y316500D01*
X520315Y302862D02*
Y311815D01*
X244500Y292000D02*
X249500Y297000D01*
X266500D01*
X270500Y317500D02*
X283000Y305000D01*
Y287000D02*
Y305000D01*
X312500Y309000D02*
X354500D01*
X364000Y318500D01*
Y330000D01*
X375500Y341500D01*
X390500D01*
X397500Y348500D01*
Y374000D01*
X430000Y360000D02*
Y379500D01*
X410500Y359000D02*
Y384000D01*
X429500Y380000D02*
X430500D01*
X429500D02*
X430000Y379500D01*
X410500Y384000D02*
X438000D01*
X421500Y351500D02*
Y378000D01*
X410500Y359000D02*
X414000Y355500D01*
X391000Y416000D02*
X391500Y416500D01*
X392051Y431449D02*
Y442925D01*
X403150Y437579D02*
X407500Y433229D01*
Y431500D02*
Y433229D01*
X401500Y442925D02*
X403150Y441276D01*
Y437579D02*
Y441276D01*
X357500Y435500D02*
X359315Y437315D01*
X351500Y435500D02*
X357500D01*
X349500Y433500D02*
X351500Y435500D01*
X349500Y417500D02*
Y433500D01*
X271000Y460000D02*
X271500D01*
X651000Y379000D02*
X658500D01*
X641000Y389000D02*
X651000Y379000D01*
X634500Y389000D02*
X641000D01*
X562185Y366685D02*
Y376500D01*
X459000Y365000D02*
Y397500D01*
X452000Y358000D02*
X459000Y365000D01*
X447600Y358000D02*
X452000D01*
X434500Y343000D02*
X442500Y335000D01*
X434500Y343000D02*
Y347000D01*
X442500Y328000D02*
Y335000D01*
X491685Y377315D02*
X492500Y376500D01*
X491685Y377315D02*
Y385000D01*
X318000Y436000D02*
X319000Y435000D01*
X322500D01*
X328000Y429500D01*
X345000Y429185D02*
X345500Y428685D01*
Y421500D02*
Y428685D01*
X349500Y417500D02*
X351500Y415500D01*
X325000Y410000D02*
Y421000D01*
X327500Y423500D01*
X351000Y448500D02*
X356500Y443000D01*
X359315Y437315D02*
Y443000D01*
X351500Y415500D02*
X364500D01*
X361500Y366000D02*
X369000D01*
X364000Y372500D02*
X365500D01*
X349625Y377875D02*
X361500Y366000D01*
X371500Y369157D02*
Y379000D01*
X413900Y390500D02*
X424500D01*
X413400Y391000D02*
X413900Y390500D01*
X407600Y391000D02*
X413400D01*
X407100Y390500D02*
X407600Y391000D01*
X464000Y420500D02*
X494500D01*
X442000Y417000D02*
X521500D01*
X456929Y454000D02*
X460000Y450929D01*
Y424500D02*
Y450929D01*
Y424500D02*
X464000Y420500D01*
X494500D02*
X505000Y431000D01*
X474370Y186000D02*
X476370Y184000D01*
X457500Y186000D02*
X474370D01*
X363500Y183500D02*
Y184500D01*
Y183500D02*
X375500Y171500D01*
Y163500D02*
Y171500D01*
Y163500D02*
X378500Y160500D01*
X383685D01*
X684362Y402862D02*
X687500Y406000D01*
Y416000D01*
X684000Y419500D02*
X687500Y416000D01*
X661500Y471000D02*
X666500D01*
X677000Y481500D01*
X684362Y372400D02*
Y402862D01*
X682500Y292500D02*
Y370538D01*
X684362Y372400D01*
X664500Y439500D02*
Y443638D01*
X663500Y438500D02*
X664500Y439500D01*
X639500Y438500D02*
X663500D01*
X627500Y426500D02*
X639500Y438500D01*
X563185Y346000D02*
X569500Y339685D01*
Y308315D02*
Y339685D01*
X569185Y308000D02*
X569500Y308315D01*
X543500Y337000D02*
X565500D01*
X542500Y336000D02*
X543500Y337000D01*
X375000Y286500D02*
X431000D01*
X360500Y272000D02*
X375000Y286500D01*
X244500Y272000D02*
X360500D01*
X292000Y353500D02*
X294000Y355500D01*
Y383000D01*
X349500Y485598D02*
Y487000D01*
X316000Y495000D02*
X330000D01*
X172860Y204360D02*
X173000Y204500D01*
X172860Y196510D02*
Y204360D01*
X143000Y204500D02*
X143332Y204168D01*
Y196510D02*
Y204168D01*
X199000Y130000D02*
Y133000D01*
X198000Y129000D02*
X199000Y130000D01*
X193086Y129000D02*
X198000D01*
X190576Y126490D02*
X193086Y129000D01*
X466500Y383000D02*
X467000Y382500D01*
X483000D01*
X483500Y383000D01*
X371500Y369157D02*
X373000Y367657D01*
Y360500D02*
Y367657D01*
X365500Y353000D02*
X373000Y360500D01*
X421000Y351000D02*
X421500Y351500D01*
X414000Y355500D02*
X415000Y356500D01*
X357000Y379500D02*
X364000Y372500D01*
X344500Y379000D02*
Y379500D01*
X331500Y392500D02*
X344500Y379500D01*
X349625Y377875D02*
Y393375D01*
X339375Y403625D02*
X349625Y393375D01*
X325500Y392500D02*
X331500D01*
X313000Y405000D02*
X325500Y392500D01*
X288500Y405000D02*
X313000D01*
X285000Y408500D02*
X288500Y405000D01*
X285000Y408500D02*
Y423000D01*
X280000D02*
X285000D01*
X265500Y408500D02*
X280000Y423000D01*
X258500Y376000D02*
X264500D01*
X297000Y430500D02*
Y437000D01*
X250500Y384000D02*
X258500Y376000D01*
X250500Y384000D02*
Y416000D01*
X244000D02*
X250500D01*
X244000Y387000D02*
Y416000D01*
X234000Y426000D02*
X244000Y416000D01*
X379256Y467138D02*
X392362D01*
X397000Y462500D01*
X397500D01*
X391000Y403000D02*
Y416000D01*
X342000Y449500D02*
X342500Y449000D01*
X324000Y449500D02*
X342000D01*
X332500Y473000D02*
X339000D01*
X329882Y467882D02*
X339000D01*
X328000Y466000D02*
X329882Y467882D01*
X330250Y470250D02*
X332500Y472500D01*
X328750Y470250D02*
X330250D01*
X328000Y469500D02*
X328750Y470250D01*
X314000Y493000D02*
X316000Y495000D01*
X314000Y483500D02*
Y493000D01*
Y483500D02*
X315500Y482000D01*
X362500Y453000D02*
X366500D01*
X371189Y457689D01*
X432520Y488980D02*
X442000Y479500D01*
X445000D01*
X474000Y489500D02*
X478500D01*
X455000Y470500D02*
X474000Y489500D01*
X437343Y470500D02*
X455000D01*
X482000Y493000D02*
X681000D01*
X478500Y489500D02*
X482000Y493000D01*
X423744Y495484D02*
X458016D01*
X355500Y463000D02*
X378669D01*
X323500Y427500D02*
X327500Y423500D01*
X323875Y403625D02*
X339375D01*
X314000Y413500D02*
X323875Y403625D01*
X363500Y469000D02*
Y482000D01*
X359000Y482500D02*
X359500Y482000D01*
X363500D02*
X367535Y486035D01*
X351000Y448500D02*
Y467000D01*
X364500Y415500D02*
X371500Y422500D01*
X379256Y471862D02*
X408138D01*
X408500Y471500D01*
X374362Y471862D02*
X379256D01*
X367500Y465000D02*
X374362Y471862D01*
X360000Y465000D02*
X367500D01*
X358000Y467000D02*
X360000Y465000D01*
X358000Y467000D02*
Y476828D01*
X347071Y467882D02*
X350118D01*
X351000Y467000D01*
X498500Y356500D02*
X501000Y354000D01*
Y343500D02*
Y354000D01*
X496000Y338500D02*
X501000Y343500D01*
X464500Y350500D02*
Y353800D01*
X466000Y355300D01*
X432500Y378000D02*
X447600D01*
X430500Y380000D02*
X432500Y378000D01*
X368500Y477000D02*
X368913Y476587D01*
X379256D01*
X394315Y160500D02*
X395315Y159500D01*
X399000D01*
X400500Y161000D01*
Y166500D01*
X404000Y170000D01*
X439000Y383000D02*
X447600D01*
X438000Y384000D02*
X439000Y383000D01*
X424500Y390500D02*
X428500Y394500D01*
X396500Y398500D02*
X414500D01*
X367500Y436000D02*
Y447000D01*
X373465Y452965D01*
X379256D01*
X521500Y417000D02*
X531000Y407500D01*
X530500Y407000D02*
X531000Y407500D01*
X530500Y402500D02*
Y407000D01*
Y402500D02*
X533000Y400000D01*
Y393000D02*
Y400000D01*
X533500Y378000D02*
X535000Y376500D01*
X562185D01*
X428500Y403500D02*
X442000Y417000D01*
X428500Y394500D02*
Y403500D01*
X271000Y445000D02*
X289000D01*
X267000Y441000D02*
X271000Y445000D01*
X267000Y420500D02*
Y441000D01*
X300500Y432657D02*
Y434500D01*
Y432657D02*
X301000Y432157D01*
Y429500D02*
Y432157D01*
Y429500D02*
X304500Y426000D01*
X297000D02*
X304500D01*
X367535Y486035D02*
X379256D01*
X684000Y419500D02*
Y490000D01*
X681000Y493000D02*
X684000Y490000D01*
X435000Y472843D02*
X437343Y470500D01*
X435000Y472843D02*
Y478476D01*
X429090Y484386D02*
X435000Y478476D01*
X425394Y484386D02*
X429090D01*
X423744Y486035D02*
X425394Y484386D01*
X466000Y355300D02*
X471171D01*
X496500Y356500D02*
X498500D01*
X487500Y347500D02*
X496500Y356500D01*
X466500Y378000D02*
X473000D01*
X474871Y376129D01*
Y359000D02*
Y376129D01*
X471171Y355300D02*
X474871Y359000D01*
X334500Y353000D02*
X365500D01*
X270000Y319500D02*
X270500Y319000D01*
X270000Y319500D02*
Y336000D01*
X297500Y315500D02*
Y344665D01*
X305835Y353000D01*
X334500D01*
X233000Y293500D02*
X244500Y282000D01*
X233000Y293500D02*
Y297000D01*
X238000Y302000D01*
X244500D01*
Y312000D02*
X251500Y319000D01*
X270500D01*
Y317500D02*
Y319000D01*
X309500Y415000D02*
X311000Y413500D01*
X297500Y415000D02*
X309500D01*
X311500Y413500D02*
X314000D01*
X311000D02*
X311500D01*
X295500Y417000D02*
X297500Y415000D01*
X295500Y424500D02*
X297000Y426000D01*
X463000Y466000D02*
X466500Y462500D01*
X453500Y466000D02*
X463000D01*
X449500Y462000D02*
X453500Y466000D01*
X423744Y457689D02*
X450846D01*
X453500Y460343D01*
Y461000D02*
X454000Y461500D01*
X453500Y460343D02*
Y461000D01*
X447740Y448240D02*
X449500Y450000D01*
X447843Y454000D02*
X456929D01*
X446808Y452965D02*
X447843Y454000D01*
X423744Y452965D02*
X446808D01*
X423744Y448240D02*
X447740D01*
X505000Y431000D02*
Y462000D01*
X499500Y467500D02*
X505000Y462000D01*
X481500Y467500D02*
X499500D01*
X476500Y462500D02*
X481500Y467500D01*
X457500Y461500D02*
X466500Y452500D01*
X454000Y461500D02*
X457500D01*
X284862Y177315D02*
X293315D01*
X295000Y179000D01*
Y188500D01*
X290000Y193500D02*
X295000Y188500D01*
X277500Y193500D02*
X290000D01*
X432520Y488980D02*
Y489000D01*
X442500Y283500D02*
Y328000D01*
X427350Y268350D02*
X442500Y283500D01*
X560185Y343000D02*
X563185Y346000D01*
X530000Y343000D02*
X560185D01*
X295500Y417000D02*
Y424500D01*
X367260Y490760D02*
X379256D01*
X275500Y153500D02*
X282500Y160500D01*
X232000Y153500D02*
X275500D01*
X223500Y145000D02*
X232000Y153500D01*
X218672Y145000D02*
X223500D01*
X194172Y120500D02*
X218672Y145000D01*
X186500Y120500D02*
X194172D01*
X184671Y122329D02*
X186500Y120500D01*
X184671Y122329D02*
Y126490D01*
X287000Y123000D02*
Y133732D01*
X284000Y120000D02*
X287000Y123000D01*
X278000Y120000D02*
X284000D01*
X219500Y143000D02*
X229500D01*
X195000Y118500D02*
X219500Y143000D01*
X180500Y118500D02*
X195000D01*
X178765Y120235D02*
X180500Y118500D01*
X178765Y120235D02*
Y126490D01*
X315500Y118500D02*
Y135047D01*
X211000Y130500D02*
X215000D01*
X196500Y116000D02*
X211000Y130500D01*
X157500Y116000D02*
X196500D01*
X155143Y118357D02*
X157500Y116000D01*
X155143Y118357D02*
Y126490D01*
X204500Y120000D02*
X209500D01*
X198000Y113500D02*
X204500Y120000D01*
X152500Y113500D02*
X198000D01*
X149238Y116762D02*
Y126490D01*
Y116762D02*
X152500Y113500D01*
X593500Y171000D02*
Y175000D01*
Y171000D02*
X595500Y169000D01*
X591500Y177000D02*
X593500Y175000D01*
X590500Y177000D02*
X591500D01*
X606500Y178500D02*
Y192000D01*
X605000Y177000D02*
X606500Y178500D01*
X601130Y177000D02*
X605000D01*
X603500Y195000D02*
X606500Y192000D01*
X600630Y176500D02*
X601130Y177000D01*
X509685Y300500D02*
X529000Y281185D01*
X516000Y400000D02*
Y402000D01*
X508000Y410000D02*
X516000Y402000D01*
X499500Y410000D02*
X508000D01*
X509685Y300500D02*
Y359185D01*
X459315Y262000D02*
X472000Y249315D01*
X432000Y262000D02*
X459315D01*
X458500Y205500D02*
X472500Y191500D01*
X455500Y202500D02*
X458500Y205500D01*
X396500Y202500D02*
X455500D01*
X427350Y236650D02*
X458500Y205500D01*
X384500Y214500D02*
X396500Y202500D01*
X363500Y214500D02*
X384500D01*
X344500Y122000D02*
Y134047D01*
X343000Y120500D02*
X344500Y122000D01*
X184671Y180829D02*
X190000Y175500D01*
X184671Y180829D02*
Y196510D01*
X430760Y490760D02*
X432520Y489000D01*
X423744Y490760D02*
X430760D01*
X501000Y268453D02*
Y275500D01*
X502000Y276500D01*
X514000D01*
X391000Y214000D02*
X424500D01*
X360000Y245000D02*
X391000Y214000D01*
X230766Y245000D02*
X360000D01*
X217957Y232190D02*
X230766Y245000D01*
X179690Y232190D02*
X217957D01*
X161049Y213549D02*
X179690Y232190D01*
X161049Y196510D02*
Y213549D01*
X378669Y463000D02*
X379256Y462413D01*
X371189Y457689D02*
X379256D01*
X328000Y466000D02*
Y469500D01*
X184671Y215671D02*
X191500Y222500D01*
X184671Y196510D02*
Y215671D01*
X245000Y164000D02*
Y208500D01*
X178765Y205265D02*
X179500Y206000D01*
X178765Y196510D02*
Y205265D01*
X655500Y331000D02*
Y332000D01*
Y331000D02*
X661500Y325000D01*
X363500Y493500D02*
X365484Y495484D01*
X379256D01*
X672000Y325000D02*
Y326000D01*
X597500Y451000D02*
X604000D01*
X610000Y445000D01*
Y405500D02*
Y445000D01*
Y405500D02*
X640000Y375500D01*
Y281000D02*
Y375500D01*
X625000Y266000D02*
X640000Y281000D01*
X625000Y240000D02*
Y266000D01*
X427350Y236650D02*
Y268350D01*
X613500Y239130D02*
X614370Y240000D01*
X487000Y184000D02*
Y187500D01*
X483000Y191500D02*
X487000Y187500D01*
X472500Y191500D02*
X483000D01*
X332500Y472500D02*
Y473000D01*
X356000D02*
Y476000D01*
D20*
X311531Y439000D02*
X315469D01*
X313500Y437032D02*
Y440969D01*
X211311Y198488D02*
Y209512D01*
X227059Y198488D02*
Y209512D01*
X211311D02*
X227059D01*
X211311Y198488D02*
X227059D01*
X217216Y204000D02*
X221153D01*
X219185Y202031D02*
Y205968D01*
X280335Y167276D02*
X284665D01*
X280335Y176724D02*
X284665D01*
X280335Y167276D02*
Y176724D01*
X284665Y167276D02*
Y176724D01*
X282500Y170130D02*
Y173870D01*
X280630Y172000D02*
X284370D01*
X284835Y131961D02*
X289165D01*
X284835Y141410D02*
X289165D01*
X284835Y131961D02*
Y141410D01*
X289165Y131961D02*
Y141410D01*
X287000Y134815D02*
Y138555D01*
X285130Y136685D02*
X288870D01*
X498835Y270224D02*
X503165D01*
X498835Y260776D02*
X503165D01*
Y270224D01*
X498835Y260776D02*
Y270224D01*
X501000Y263630D02*
Y267370D01*
X499130Y265500D02*
X502870D01*
X313335Y133276D02*
X317665D01*
X313335Y142724D02*
X317665D01*
X313335Y133276D02*
Y142724D01*
X317665Y133276D02*
Y142724D01*
X315500Y136130D02*
Y139870D01*
X313630Y138000D02*
X317370D01*
X469835Y239276D02*
X474165D01*
X469835Y248724D02*
X474165D01*
X469835Y239276D02*
Y248724D01*
X474165Y239276D02*
Y248724D01*
X472000Y242130D02*
Y245870D01*
X470130Y244000D02*
X473870D01*
X342335Y132276D02*
X346665D01*
X342335Y141724D02*
X346665D01*
X342335Y132276D02*
Y141724D01*
X346665Y132276D02*
Y141724D01*
X344500Y135130D02*
Y138870D01*
X342630Y137000D02*
X346370D01*
X654461Y443835D02*
Y448165D01*
X663909Y443835D02*
Y448165D01*
X654461D02*
X663909D01*
X654461Y443835D02*
X663909D01*
X657315Y446000D02*
X661055D01*
X659185Y444130D02*
Y447870D01*
X519724Y298335D02*
Y302665D01*
X510276Y298335D02*
Y302665D01*
Y298335D02*
X519724D01*
X510276Y302665D02*
X519724D01*
X513130Y300500D02*
X516870D01*
X515000Y298630D02*
Y302370D01*
X271591Y469835D02*
Y474165D01*
X281039Y469835D02*
Y474165D01*
X271591D02*
X281039D01*
X271591Y469835D02*
X281039D01*
X274445Y472000D02*
X278185D01*
X276315Y470130D02*
Y473870D01*
X345224Y427835D02*
Y432165D01*
X335776Y427835D02*
Y432165D01*
Y427835D02*
X345224D01*
X335776Y432165D02*
X345224D01*
X338630Y430000D02*
X342370D01*
X340500Y428130D02*
Y431870D01*
X307776Y463835D02*
Y468165D01*
X317224Y463835D02*
Y468165D01*
X307776D02*
X317224D01*
X307776Y463835D02*
X317224D01*
X310630Y466000D02*
X314370D01*
X312500Y464130D02*
Y467870D01*
X349276Y440835D02*
Y445165D01*
X358724Y440835D02*
Y445165D01*
X349276D02*
X358724D01*
X349276Y440835D02*
X358724D01*
X352130Y443000D02*
X355870D01*
X354000Y441130D02*
Y444870D01*
X270311Y280988D02*
Y292012D01*
X286059Y280988D02*
Y292012D01*
X270311D02*
X286059D01*
X270311Y280988D02*
X286059D01*
X276217Y286500D02*
X280153D01*
X278185Y284531D02*
Y288469D01*
X473811Y178488D02*
Y189512D01*
X489559Y178488D02*
Y189512D01*
X473811D02*
X489559D01*
X473811Y178488D02*
X489559D01*
X479716Y184000D02*
X483653D01*
X481685Y182032D02*
Y185968D01*
X587941Y171488D02*
Y182512D01*
X603689Y171488D02*
Y182512D01*
X587941D02*
X603689D01*
X587941Y171488D02*
X603689D01*
X593847Y177000D02*
X597784D01*
X595815Y175031D02*
Y178969D01*
X381126Y154988D02*
Y166012D01*
X396874Y154988D02*
Y166012D01*
X381126D02*
X396874D01*
X381126Y154988D02*
X396874D01*
X387032Y160500D02*
X390968D01*
X389000Y158531D02*
Y162469D01*
X648126Y466488D02*
Y477512D01*
X663874Y466488D02*
Y477512D01*
X648126D02*
X663874D01*
X648126Y466488D02*
X663874D01*
X654032Y472000D02*
X657969D01*
X656000Y470031D02*
Y473969D01*
X489126Y379488D02*
Y390512D01*
X504874Y379488D02*
Y390512D01*
X489126D02*
X504874D01*
X489126Y379488D02*
X504874D01*
X495031Y385000D02*
X498969D01*
X497000Y383032D02*
Y386968D01*
X611811Y234488D02*
Y245512D01*
X627559Y234488D02*
Y245512D01*
X611811D02*
X627559D01*
X611811Y234488D02*
X627559D01*
X617717Y240000D02*
X621654D01*
X619685Y238032D02*
Y241968D01*
X272150Y336543D02*
X315850D01*
X272150Y401504D02*
X315850D01*
X272150Y336543D02*
Y401504D01*
X315850Y336543D02*
Y401504D01*
X294000Y367055D02*
Y370992D01*
X292032Y369024D02*
X295969D01*
X566626Y304260D02*
Y311740D01*
X582374Y304260D02*
Y311740D01*
X566626D02*
X582374D01*
X566626Y304260D02*
X582374D01*
X572532Y308000D02*
X576469D01*
X574500Y306031D02*
Y309968D01*
X559626Y372760D02*
Y380240D01*
X575374Y372760D02*
Y380240D01*
X559626D02*
X575374D01*
X559626Y372760D02*
X575374D01*
X565531Y376500D02*
X569468D01*
X567500Y374532D02*
Y378468D01*
X560626Y342260D02*
Y349740D01*
X576374Y342260D02*
Y349740D01*
X560626D02*
X576374D01*
X560626Y342260D02*
X576374D01*
X566532Y346000D02*
X570469D01*
X568500Y344032D02*
Y347969D01*
X528441Y403760D02*
Y411240D01*
X544189Y403760D02*
Y411240D01*
X528441D02*
X544189D01*
X528441Y403760D02*
X544189D01*
X534346Y407500D02*
X538283D01*
X536315Y405532D02*
Y409469D01*
D21*
X318000Y433000D02*
D03*
X309000D02*
D03*
Y436000D02*
D03*
X318000Y439000D02*
D03*
X309000D02*
D03*
X318000Y442000D02*
D03*
X309000D02*
D03*
X318000Y445000D02*
D03*
X309000D02*
D03*
X318000Y436000D02*
D03*
D22*
X213870Y204000D02*
D03*
X224500D02*
D03*
X272870Y286500D02*
D03*
X283500D02*
D03*
X476370Y184000D02*
D03*
X487000D02*
D03*
X590500Y177000D02*
D03*
X601130D02*
D03*
X383685Y160500D02*
D03*
X394315D02*
D03*
X650685Y472000D02*
D03*
X661315D02*
D03*
X491685Y385000D02*
D03*
X502315D02*
D03*
X614370Y240000D02*
D03*
X625000D02*
D03*
D23*
X282500Y169047D02*
D03*
Y174953D02*
D03*
X287000Y133732D02*
D03*
Y139638D02*
D03*
X501000Y268453D02*
D03*
Y262547D02*
D03*
X315500Y135047D02*
D03*
Y140953D02*
D03*
X472000Y241047D02*
D03*
Y246953D02*
D03*
X344500Y134047D02*
D03*
Y139953D02*
D03*
D24*
X656232Y446000D02*
D03*
X662138D02*
D03*
X517953Y300500D02*
D03*
X512047D02*
D03*
X273362Y472000D02*
D03*
X279268D02*
D03*
X343453Y430000D02*
D03*
X337547D02*
D03*
X309547Y466000D02*
D03*
X315453D02*
D03*
X351047Y443000D02*
D03*
X356953D02*
D03*
D25*
X143332Y196510D02*
D03*
X149238D02*
D03*
X155143D02*
D03*
X161049D02*
D03*
X166954D02*
D03*
X172860D02*
D03*
X178765D02*
D03*
X184671D02*
D03*
X190576D02*
D03*
Y126490D02*
D03*
X184671D02*
D03*
X178765D02*
D03*
X172860D02*
D03*
X166954D02*
D03*
X161049D02*
D03*
X155143D02*
D03*
X149238D02*
D03*
X143332D02*
D03*
D26*
X284000Y342252D02*
D03*
X304000D02*
D03*
D27*
X294000Y383000D02*
D03*
D28*
X423744Y495484D02*
D03*
Y490760D02*
D03*
Y486035D02*
D03*
Y481311D02*
D03*
Y476587D02*
D03*
Y471862D02*
D03*
Y467138D02*
D03*
Y462413D02*
D03*
Y457689D02*
D03*
Y452965D02*
D03*
Y448240D02*
D03*
Y443516D02*
D03*
X379256D02*
D03*
Y448240D02*
D03*
Y452965D02*
D03*
Y457689D02*
D03*
Y462413D02*
D03*
Y467138D02*
D03*
Y471862D02*
D03*
Y476587D02*
D03*
Y481311D02*
D03*
Y486035D02*
D03*
Y490760D02*
D03*
Y495484D02*
D03*
D29*
X415673Y442925D02*
D03*
X410949D02*
D03*
X406224D02*
D03*
X401500D02*
D03*
X396776D02*
D03*
X392051D02*
D03*
X387327D02*
D03*
D30*
X466500Y388000D02*
D03*
Y383000D02*
D03*
Y378000D02*
D03*
Y373000D02*
D03*
Y368000D02*
D03*
Y363000D02*
D03*
Y358000D02*
D03*
X447600D02*
D03*
Y363000D02*
D03*
Y368000D02*
D03*
Y373000D02*
D03*
Y378000D02*
D03*
Y383000D02*
D03*
Y388000D02*
D03*
D31*
X613000Y129500D02*
D03*
X443500Y432000D02*
D03*
X311500Y413500D02*
D03*
X289000Y445000D02*
D03*
X285000Y423000D02*
D03*
X442500Y328000D02*
D03*
X414500Y398500D02*
D03*
X498500Y356500D02*
D03*
X499500Y410000D02*
D03*
D32*
X270500Y319000D02*
D03*
X325000Y484000D02*
D03*
X349500Y489000D02*
D03*
X245000Y164000D02*
D03*
X212500Y155500D02*
D03*
X382500Y412500D02*
D03*
D33*
X569185Y308000D02*
D03*
X579815D02*
D03*
X562185Y376500D02*
D03*
X572815D02*
D03*
X563185Y346000D02*
D03*
X573815D02*
D03*
X531000Y407500D02*
D03*
X541630D02*
D03*
D34*
X347071Y473000D02*
D03*
Y465323D02*
D03*
Y467882D02*
D03*
Y470441D02*
D03*
X339000Y465323D02*
D03*
Y473000D02*
D03*
Y470441D02*
D03*
Y467882D02*
D03*
D61*
X541315Y398000D02*
Y466315D01*
X438500Y403000D02*
X502000D01*
X651500Y298500D02*
X652000D01*
X621000Y291000D02*
Y292000D01*
X493547Y262547D02*
X570047D01*
X308000Y466000D02*
Y466815D01*
X304500Y444500D02*
X309000D01*
X306815Y143315D02*
X315500D01*
X240500Y142000D02*
X305500D01*
X303547Y472000D02*
X307185Y468362D01*
X279268Y472000D02*
X303547D01*
X118874Y459913D02*
Y465874D01*
X128000Y475000D01*
X136000D01*
X144000Y483000D01*
X502000Y385500D02*
X508500Y379000D01*
X502000Y379315D02*
Y385500D01*
X255500Y342500D02*
X284000D01*
X144000Y483000D02*
X204000D01*
X201000Y207500D02*
X204500Y204000D01*
X213870D01*
X334000Y439500D02*
X337500Y443000D01*
X334000Y433547D02*
Y439500D01*
Y433547D02*
X337547Y430000D01*
X337500Y443000D02*
X345000D01*
X346208Y444208D02*
X347416Y445416D01*
X345000Y443000D02*
X346208Y444208D01*
X347416Y443000D02*
X351047D01*
X346208Y444208D02*
X347416Y443000D01*
Y445416D02*
Y453084D01*
X335000Y411500D02*
Y427453D01*
X337547Y430000D01*
X346000Y454500D02*
X347416Y453084D01*
X653000Y446000D02*
X656232D01*
X472000Y241047D02*
X479047D01*
X472000D02*
X478547Y234500D01*
X307185Y467630D02*
X308000Y466815D01*
X306000Y464000D02*
X308000Y466000D01*
X316315Y142500D02*
X344500D01*
X605000Y309000D02*
X622000Y292000D01*
X605000Y309000D02*
Y316000D01*
X599000Y373500D02*
X609000Y363500D01*
X599000Y373500D02*
Y382500D01*
X370000Y407500D02*
X375000Y412500D01*
X382500D01*
X421500Y429500D02*
X424000Y432000D01*
X443500D01*
X421500Y429500D02*
Y435500D01*
X423744Y437744D01*
Y443516D01*
X378500Y432500D02*
X379256Y433256D01*
Y443516D01*
X317750Y454500D02*
X345500D01*
X315250Y457000D02*
X317750Y454500D01*
X344500Y304500D02*
X349500Y299500D01*
X302000Y304500D02*
X344500D01*
X284000Y322500D02*
X302000Y304500D01*
X284000Y322500D02*
Y342252D01*
X599500Y340500D02*
X616000Y357000D01*
X625500D01*
X626000Y356500D01*
X592000Y340500D02*
X599500D01*
X618500Y404000D02*
X680500D01*
X560000Y355500D02*
X561000Y354500D01*
X564000D01*
X437864Y352500D02*
X444364Y346000D01*
X429500Y352500D02*
X437864D01*
X421500Y344500D02*
X429500Y352500D01*
X476000Y346000D02*
X487500Y357500D01*
X444364Y346000D02*
X476000D01*
X408500Y344500D02*
X421500D01*
X394000Y330000D02*
X408500Y344500D01*
X487500Y357500D02*
Y386000D01*
X335000Y411500D02*
X340375Y406125D01*
X361500Y385000D02*
X377000D01*
X352125Y394375D02*
X361500Y385000D01*
X352125Y394375D02*
Y394410D01*
X340410Y406125D02*
X352125Y394410D01*
X340375Y406125D02*
X340410D01*
X379500Y382500D02*
X382500Y379500D01*
X377000Y385000D02*
X379500Y382500D01*
X386500D01*
X392000Y388000D01*
X408136D01*
X408636Y388500D01*
X412364D01*
X412864Y388000D01*
X447600D01*
X450000Y390400D01*
Y397500D01*
X448000Y399500D02*
X450000Y397500D01*
X440500Y399500D02*
X448000D01*
X470500Y425000D02*
Y426500D01*
X476500Y432500D01*
X592000Y320185D02*
Y340500D01*
X579815Y308000D02*
X592000Y320185D01*
X586500Y346000D02*
X592000Y340500D01*
X573815Y346000D02*
X586500D01*
X345500Y454500D02*
X346000D01*
X485500Y388000D02*
X487500Y386000D01*
X466500Y388000D02*
X485500D01*
X508500Y379000D02*
X509500D01*
X502000Y379315D02*
X525815Y355500D01*
X434500Y399000D02*
X438500Y403000D01*
X502000D02*
X518000Y387000D01*
X472000Y397000D02*
X473500Y398500D01*
X472000Y394000D02*
Y397000D01*
X466500Y388500D02*
X472000Y394000D01*
X473500Y398500D02*
X501500D01*
X382500Y359000D02*
Y379500D01*
X364000Y340500D02*
X382500Y359000D01*
X340000Y340500D02*
X364000D01*
X259500Y392000D02*
Y459000D01*
Y392000D02*
X271035Y380465D01*
Y364652D02*
Y380465D01*
X254000Y464500D02*
X259500Y459000D01*
X306000Y457000D02*
X315250D01*
X501500Y398500D02*
X512000Y388000D01*
X509500Y379000D02*
X512000Y381500D01*
Y388000D01*
X518000Y387000D02*
X538500D01*
X541315Y389815D01*
Y398000D01*
X651500Y298500D02*
Y299000D01*
X652000Y298500D02*
X654500Y296000D01*
X672000D01*
X446000Y391500D02*
X447600Y389900D01*
X437000Y391500D02*
X446000D01*
X447600Y388000D02*
Y389900D01*
X466500Y388000D02*
Y388500D01*
X301500Y447500D02*
X304500Y444500D01*
X301500Y447500D02*
Y452500D01*
X207500Y109000D02*
X240500Y142000D01*
X148500Y109000D02*
X207500D01*
X143332Y114168D02*
X148500Y109000D01*
X143332Y114168D02*
Y126490D01*
X525815Y355500D02*
X560000D01*
X624000Y173500D02*
X651000D01*
X613000Y162500D02*
X624000Y173500D01*
X651000D02*
X652000Y174500D01*
X570047Y262547D02*
X590000Y282500D01*
X306000Y457000D02*
Y464000D01*
X307185Y467630D02*
Y468362D01*
X432500Y246500D02*
Y251500D01*
Y246500D02*
X437953Y241047D01*
X233500Y453500D02*
X244500Y464500D01*
X254000D01*
X204000Y483000D02*
X233500Y453500D01*
Y451000D02*
Y453500D01*
Y444178D02*
X239178Y438500D01*
X233500Y444178D02*
Y451000D01*
X284000Y342500D02*
Y351687D01*
Y342252D02*
Y342500D01*
X271035Y364652D02*
X284000Y351687D01*
X394000Y330000D02*
Y330000D01*
X390500Y333500D02*
X394000Y330000D01*
X369500Y299500D02*
X374000Y304000D01*
X349500Y299500D02*
X369500D01*
X374000Y304000D02*
Y325000D01*
X382500Y333500D01*
X390500D01*
X252500Y328000D02*
Y339500D01*
X255500Y342500D01*
X244500Y322000D02*
X246500D01*
X252500Y328000D01*
X586000Y452500D02*
X587500Y451000D01*
X554000Y452500D02*
X586000D01*
X587500Y431500D02*
Y451000D01*
Y431500D02*
X599000Y420000D01*
Y412500D02*
Y420000D01*
X650685Y448315D02*
X653000Y446000D01*
X650685Y448315D02*
Y472000D01*
X301500Y452500D02*
X306000Y457000D01*
X333000Y333500D02*
X340000Y340500D01*
X333000Y326000D02*
Y333500D01*
X325500Y318500D02*
X333000Y326000D01*
X309500Y318500D02*
X325500D01*
X304000Y324000D02*
X309500Y318500D01*
X304000Y324000D02*
Y342252D01*
X434500Y394000D02*
X437000Y391500D01*
X434500Y394000D02*
Y399000D01*
X588500Y412500D02*
X599000D01*
X585500Y409500D02*
X588500Y412500D01*
X585500Y381500D02*
Y409500D01*
X580500Y376500D02*
X585500Y381500D01*
X572815Y376500D02*
X580500D01*
X634685Y488000D02*
X650685Y472000D01*
X563000Y488000D02*
X634685D01*
X541315Y466315D02*
X563000Y488000D01*
X541315Y398000D02*
X564000D01*
X572815Y389185D01*
Y376500D02*
Y389185D01*
Y376500D02*
X573815Y375500D01*
Y346000D02*
Y375500D01*
X621000Y292000D02*
X622000D01*
X583500D02*
X621000D01*
X579815Y295685D02*
Y308000D01*
Y295685D02*
X583500Y292000D01*
X612500Y282500D02*
X621000Y291000D01*
X590000Y282500D02*
X612500D01*
X490500Y234500D02*
X503000Y222000D01*
X478547Y234500D02*
X490500D01*
X488500Y257500D02*
X493547Y262547D01*
X488500Y250500D02*
Y257500D01*
X479047Y241047D02*
X488500Y250500D01*
X432000Y252000D02*
X432500Y251500D01*
X437953Y241047D02*
X472000D01*
X365000Y149000D02*
X397000D01*
X402500Y154500D01*
X430500D01*
X613000Y129500D02*
Y162500D01*
X503000Y177000D02*
Y222000D01*
X497500Y171500D02*
X503000Y177000D01*
X464500Y171500D02*
X497500D01*
X457500Y164500D02*
X464500Y171500D01*
X457500Y156000D02*
Y164500D01*
X524000Y147500D02*
X525000Y146500D01*
X501000Y147500D02*
X524000D01*
X492500Y156000D02*
X501000Y147500D01*
X457500Y156000D02*
X492500D01*
X445500D02*
X457500D01*
X444000Y154500D02*
X445500Y156000D01*
X430500Y154500D02*
X444000D01*
X308000Y182500D02*
X308500Y182000D01*
X318000D01*
X322000Y178000D01*
X334000D01*
X343000D01*
X350000Y171000D01*
Y164000D02*
Y171000D01*
Y164000D02*
X365000Y149000D01*
X305500Y142000D02*
X306815Y143315D01*
X344500Y142500D02*
Y167500D01*
X315500Y143315D02*
X316315Y142500D01*
X334000Y178000D02*
X344500Y167500D01*
Y142315D02*
X448685D01*
X596500Y113000D02*
X613000Y129500D01*
X478000Y113000D02*
X596500D01*
X448685Y142315D02*
X478000Y113000D01*
D62*
X124874Y438378D02*
D03*
Y446252D02*
D03*
Y454126D02*
D03*
X118874Y432354D02*
D03*
Y442197D02*
D03*
Y450071D02*
D03*
Y459913D02*
D03*
D63*
X111000Y420268D02*
D03*
Y472000D02*
D03*
D64*
X263500Y127000D02*
D03*
X243500Y127000D02*
D03*
X560000Y151500D02*
D03*
Y171500D02*
D03*
X658500Y359000D02*
D03*
Y379000D02*
D03*
X652000Y154500D02*
D03*
Y174500D02*
D03*
X626000Y356500D02*
D03*
Y376500D02*
D03*
X349500Y299500D02*
D03*
Y319500D02*
D03*
X334000Y178000D02*
D03*
Y198000D02*
D03*
X334500Y383000D02*
D03*
X334500Y353000D02*
D03*
X363500Y184500D02*
D03*
Y214500D02*
D03*
X244000Y357000D02*
D03*
Y387000D02*
D03*
X394000Y330000D02*
D03*
X394000Y300000D02*
D03*
X430500Y154500D02*
D03*
Y184500D02*
D03*
X392500Y236500D02*
D03*
Y266500D02*
D03*
X554000Y422500D02*
D03*
Y452500D02*
D03*
X457500Y186000D02*
D03*
X457500Y156000D02*
D03*
X525000Y176500D02*
D03*
X525000Y146500D02*
D03*
X672000Y296000D02*
D03*
Y326000D02*
D03*
X680500Y374000D02*
D03*
Y404000D02*
D03*
X599000Y382500D02*
D03*
Y412500D02*
D03*
X308000Y212500D02*
D03*
X308000Y182500D02*
D03*
D65*
X277500Y213500D02*
D03*
X543000Y296000D02*
D03*
D66*
X277500Y193500D02*
D03*
X543000Y276000D02*
D03*
D67*
X244500Y322000D02*
D03*
Y312000D02*
D03*
Y302000D02*
D03*
Y292000D02*
D03*
Y282000D02*
D03*
X466500Y472500D02*
D03*
X476500D02*
D03*
X466500Y462500D02*
D03*
X476500D02*
D03*
X466500Y452500D02*
D03*
X476500D02*
D03*
X466500Y442500D02*
D03*
X476500D02*
D03*
X466500Y432500D02*
D03*
D68*
X244500Y272000D02*
D03*
X476500Y432500D02*
D03*
D69*
X203500Y438500D02*
D03*
X210000Y451500D02*
D03*
X209000Y426000D02*
D03*
X234000D02*
D03*
X233500Y451000D02*
D03*
X239178Y438500D02*
D03*
D70*
X432000Y252000D02*
D03*
Y262000D02*
D03*
X632000Y292000D02*
D03*
X622000D02*
D03*
X597500Y451000D02*
D03*
X587500D02*
D03*
D71*
X627500Y426500D02*
D03*
D72*
X647185Y426500D02*
D03*
D73*
X201000Y207500D02*
D03*
X199000Y167000D02*
D03*
X225000Y186500D02*
D03*
X605000Y316000D02*
D03*
X370000Y407500D02*
D03*
X386500Y396500D02*
D03*
X370500Y390500D02*
D03*
X378500Y432500D02*
D03*
X397500Y422000D02*
D03*
X336500Y478500D02*
D03*
X337000Y493000D02*
D03*
X333500Y461500D02*
D03*
X588000Y189000D02*
D03*
X525000Y316500D02*
D03*
X266500Y297000D02*
D03*
X263000Y285000D02*
D03*
X312500Y309000D02*
D03*
X397500Y374000D02*
D03*
X429500Y380000D02*
D03*
X391500Y416500D02*
D03*
X392051Y431449D02*
D03*
X353500Y431500D02*
D03*
X308000Y452500D02*
D03*
X271500Y460000D02*
D03*
X634500Y389000D02*
D03*
X562185Y366685D02*
D03*
X564000Y354500D02*
D03*
X459000Y397500D02*
D03*
X430000Y360000D02*
D03*
X434500Y347000D02*
D03*
X492500Y376500D02*
D03*
X328000Y429500D02*
D03*
X345500Y421500D02*
D03*
X325000Y410000D02*
D03*
X369000Y366000D02*
D03*
X365500Y372500D02*
D03*
X371500Y379000D02*
D03*
X440500Y399500D02*
D03*
X470500Y425000D02*
D03*
X375500Y171500D02*
D03*
X677000Y481500D02*
D03*
X682500Y292500D02*
D03*
X297815Y166685D02*
D03*
X565500Y337000D02*
D03*
X542500Y336000D02*
D03*
X431000Y286500D02*
D03*
X292000Y353500D02*
D03*
X421500Y429500D02*
D03*
X173000Y204500D02*
D03*
X143000D02*
D03*
X199000Y133000D02*
D03*
X483000Y382500D02*
D03*
X357000Y379500D02*
D03*
X344500Y379000D02*
D03*
X265500Y408500D02*
D03*
X264500Y376000D02*
D03*
X297000Y430500D02*
D03*
X324000Y449500D02*
D03*
X342500Y449000D02*
D03*
X341500Y438000D02*
D03*
X397500Y462500D02*
D03*
X362500Y453000D02*
D03*
X445000Y479500D02*
D03*
X458016Y495484D02*
D03*
X355500Y463000D02*
D03*
X363500Y469000D02*
D03*
X359500Y482000D02*
D03*
X408500Y471500D02*
D03*
X496000Y338500D02*
D03*
X421000Y351000D02*
D03*
X464500Y350500D02*
D03*
X368500Y477000D02*
D03*
X404000Y170000D02*
D03*
X415000Y356500D02*
D03*
X410500Y384000D02*
D03*
X396500Y398500D02*
D03*
X367500Y436000D02*
D03*
X533000Y393000D02*
D03*
X533500Y378000D02*
D03*
X355500Y409000D02*
D03*
X267000Y420500D02*
D03*
X304500Y426000D02*
D03*
X651500Y299000D02*
D03*
X487500Y347500D02*
D03*
X421500Y378000D02*
D03*
X270000Y336000D02*
D03*
X297500Y315500D02*
D03*
X449500Y462000D02*
D03*
Y450000D02*
D03*
X530000Y343000D02*
D03*
X278000Y120000D02*
D03*
X229500Y143000D02*
D03*
X315500Y118500D02*
D03*
X215000Y130500D02*
D03*
X209500Y120000D02*
D03*
X603500Y195000D02*
D03*
X529000Y281185D02*
D03*
X516000Y400000D02*
D03*
X509685Y359185D02*
D03*
X343000Y120500D02*
D03*
X514000Y276500D02*
D03*
X424500Y214000D02*
D03*
X191500Y222500D02*
D03*
X245000Y208500D02*
D03*
X179500Y206000D02*
D03*
X609000Y363500D02*
D03*
X655500Y332000D02*
D03*
X363500Y493500D02*
D03*
X618500Y404000D02*
D03*
M02*
