G04*
G04 #@! TF.GenerationSoftware,Altium Limited,Altium Designer,18.0.11 (651)*
G04*
G04 Layer_Physical_Order=4*
G04 Layer_Color=16711680*
%FSLAX25Y25*%
%MOIN*%
G70*
G01*
G75*
%ADD17C,0.00800*%
%ADD19C,0.01000*%
%ADD20C,0.00394*%
%ADD61C,0.02000*%
%ADD62C,0.05118*%
%ADD63C,0.11811*%
%ADD64C,0.04724*%
%ADD65C,0.07284*%
%ADD66R,0.07284X0.07284*%
%ADD67C,0.05906*%
%ADD68R,0.05906X0.05906*%
%ADD69C,0.07874*%
%ADD70C,0.06299*%
%ADD71R,0.05315X0.05315*%
%ADD72C,0.05315*%
%ADD73C,0.05000*%
D17*
X319799Y429945D02*
Y448055D01*
X307201Y429945D02*
Y448055D01*
Y429945D02*
X319799D01*
X307201Y448055D02*
X319799D01*
D19*
X472297Y443500D02*
X512500D01*
X343600Y452600D02*
X348000Y457000D01*
X341009Y452600D02*
X343600D01*
X338900Y450491D02*
X341009Y452600D01*
X338900Y447900D02*
Y450491D01*
X317000Y426000D02*
X338900Y447900D01*
X348000Y457000D02*
X355157D01*
X304500Y426000D02*
X317000D01*
X532000Y392000D02*
X533500Y390500D01*
X118874Y432354D02*
X122285Y428943D01*
Y428943D02*
Y428943D01*
X127228Y424000D02*
X156500D01*
X122285Y428943D02*
X127228Y424000D01*
X220500Y182000D02*
X225000Y186500D01*
X205000Y182000D02*
X220500D01*
X199000Y176000D02*
X205000Y182000D01*
X199000Y167000D02*
Y176000D01*
X164500Y432000D02*
X181000D01*
X156500Y424000D02*
X164500Y432000D01*
X447000Y472500D02*
X450500D01*
X445000Y474500D02*
X447000Y472500D01*
X445000Y474500D02*
Y479500D01*
X384500Y396500D02*
X386500D01*
X378500Y390500D02*
X384500Y396500D01*
X382500Y384500D02*
X396500Y398500D01*
X371409Y384500D02*
X382500D01*
X364500Y391409D02*
Y433000D01*
Y391409D02*
X371409Y384500D01*
X370500Y390500D02*
X378500D01*
X397500Y422000D02*
Y425000D01*
X398843Y415000D02*
X433500D01*
X393500Y420343D02*
X398843Y415000D01*
X397500Y425000D02*
X408500Y436000D01*
Y471500D01*
X337000Y491000D02*
X339000Y489000D01*
Y473000D02*
Y489000D01*
X329000Y473000D02*
X339000D01*
X337000Y491000D02*
Y493000D01*
X327000Y461500D02*
X333500D01*
X326000Y462500D02*
X327000Y461500D01*
X334500Y456000D02*
X341000Y462500D01*
X355000D01*
X266500Y297000D02*
X303500D01*
Y297500D01*
X257000Y256500D02*
Y434000D01*
X262000Y439000D01*
X223000Y222500D02*
X257000Y256500D01*
X303500Y297500D02*
X312500Y309000D01*
X397500Y374000D02*
X398500Y373000D01*
X368000Y370000D02*
X426500D01*
X398500Y373000D02*
X434500D01*
X436500Y375000D01*
Y412000D01*
X429500Y380000D02*
Y407000D01*
X426500Y370000D02*
X446000Y350500D01*
X455500D01*
X457500Y352500D01*
X433500Y415000D02*
X436500Y412000D01*
X393500Y420343D02*
Y423828D01*
X394000Y424328D01*
Y429500D01*
X392051Y431449D02*
X394000Y429500D01*
X391500Y416500D02*
Y425343D01*
X392000Y425843D01*
X389843Y412000D02*
X424500D01*
X371500Y430343D02*
X389843Y412000D01*
X371500Y430343D02*
Y453657D01*
X388051Y445551D02*
X398000Y455500D01*
X388051Y429792D02*
Y445551D01*
Y429792D02*
X392000Y425843D01*
X353500Y419828D02*
Y431500D01*
X357500Y416500D02*
Y453657D01*
X361000Y357000D02*
Y451500D01*
X350672Y417000D02*
X353500Y419828D01*
X354500Y413500D02*
X357500Y416500D01*
X333500Y329500D02*
X361000Y357000D01*
X306000Y452500D02*
X308000D01*
X298500Y460000D02*
X306000Y452500D01*
X271500Y460000D02*
X298500D01*
X674000Y360500D02*
Y370500D01*
X677500Y374000D01*
X680500D01*
X634500Y389000D02*
Y401500D01*
X627000Y409000D02*
X634500Y401500D01*
X633500Y337000D02*
X644500Y348000D01*
X565500Y337000D02*
X633500D01*
X644500Y348000D02*
Y398500D01*
X614000Y409000D02*
X627000D01*
X606500Y381500D02*
Y401500D01*
X614000Y409000D01*
X627500Y415500D02*
X644500Y398500D01*
X595500Y370500D02*
X606500Y381500D01*
X566000Y370500D02*
X595500D01*
X562185Y366685D02*
X566000Y370500D01*
X590500Y382500D02*
X599000D01*
X580000Y393000D02*
X590500Y382500D01*
X580000Y393000D02*
Y407500D01*
X565000Y422500D02*
X580000Y407500D01*
X554000Y422500D02*
X565000D01*
X265500Y375000D02*
Y408500D01*
X483000Y382500D02*
Y390500D01*
X480500Y393000D02*
X483000Y390500D01*
X457500Y352500D02*
Y390000D01*
X460500Y393000D01*
X480500D01*
X430000Y360000D02*
X434500Y355500D01*
Y347000D02*
Y355500D01*
X418500Y366000D02*
X426000Y358500D01*
Y347000D02*
Y358500D01*
Y347000D02*
X431000Y342000D01*
X493843D01*
X426500Y338500D02*
X496000D01*
X421000Y344000D02*
X426500Y338500D01*
X421000Y344000D02*
Y351000D01*
X498157Y342000D02*
X529000D01*
X497657Y342500D02*
X498157Y342000D01*
X494343Y342500D02*
X497657D01*
X493843Y342000D02*
X494343Y342500D01*
X529000Y342000D02*
X530000Y343000D01*
X500870Y368000D02*
X509685Y359185D01*
X486500Y368000D02*
X500870D01*
X483000Y371500D02*
X486500Y368000D01*
X483000Y371500D02*
Y382500D01*
X328000Y427500D02*
Y429500D01*
X334500Y454000D02*
Y456000D01*
X319500Y439000D02*
X334500Y454000D01*
X262000Y439000D02*
X319500D01*
X328000Y427500D02*
X334000Y421500D01*
X345500D01*
X328500Y417000D02*
X350672D01*
X323500Y422000D02*
X328500Y417000D01*
X341515Y414500D02*
X342515Y413500D01*
X326000Y414500D02*
X341515D01*
X325000Y413500D02*
X326000Y414500D01*
X325000Y410000D02*
Y413500D01*
X342515D02*
X354500D01*
X325000Y410000D02*
X334500D01*
X320500Y414500D02*
X325000Y410000D01*
X369000Y366000D02*
X418500D01*
X365500Y372500D02*
X368000Y370000D01*
X371500Y379000D02*
X420500D01*
X684500Y481500D02*
X691500Y474500D01*
X691500Y132500D01*
X665000Y106000D02*
X691500Y132500D01*
X677000Y481500D02*
X684500D01*
X676500D02*
X677000D01*
X677500Y282500D02*
X679000Y284000D01*
X682500D01*
X641500Y282500D02*
X677500D01*
X632000Y292000D02*
X641500Y282500D01*
X682500Y284000D02*
Y292500D01*
X401000Y106000D02*
X665000D01*
X349500Y157500D02*
X401000Y106000D01*
X307000Y157500D02*
X349500D01*
X297815Y166685D02*
X307000Y157500D01*
X659000Y426500D02*
X659500Y426000D01*
X647185Y426500D02*
X659000D01*
X627500Y415500D02*
Y426500D01*
X561500Y314500D02*
Y327500D01*
X553500Y335500D02*
X561500Y327500D01*
X553500Y335500D02*
Y402500D01*
X543000Y296000D02*
X561500Y314500D01*
X542500Y334000D02*
Y336000D01*
X537000Y328500D02*
X542500Y334000D01*
X512500Y443500D02*
X553500Y402500D01*
X504000Y328500D02*
X537000D01*
X462000Y286500D02*
X504000Y328500D01*
X431000Y286500D02*
X462000D01*
X415000Y284000D02*
Y356500D01*
X397500Y266500D02*
X415000Y284000D01*
X241500Y354500D02*
X244000Y357000D01*
X230500Y354500D02*
X241500D01*
X181000Y432000D02*
X183000Y430000D01*
X191500Y438500D01*
X203500D01*
X326000Y470000D02*
X329000Y473000D01*
X326000Y462500D02*
Y470000D01*
X355157Y457000D02*
X359500Y461343D01*
X344500Y193000D02*
Y210500D01*
X337000Y218000D02*
X344500Y210500D01*
X313500Y218000D02*
X337000D01*
X307000Y213500D02*
X308000Y212500D01*
X277500Y213500D02*
X307000D01*
X308000Y212500D02*
X313500Y218000D01*
X344500Y193000D02*
X353000Y184500D01*
X363500D01*
X377000D01*
X381000Y236500D02*
X392500D01*
X377000Y232500D02*
X381000Y236500D01*
X377000Y184500D02*
Y232500D01*
X415000Y185000D02*
X415500Y184500D01*
X430500D01*
X432000Y186000D01*
X457500D01*
X555000Y276000D02*
X557000Y274000D01*
X543000Y276000D02*
X555000D01*
X576500Y174500D02*
Y178000D01*
X573500Y171500D02*
X576500Y174500D01*
X560000Y171500D02*
X573500D01*
X529000Y271000D02*
X603500Y196500D01*
Y195000D02*
Y196500D01*
X523500Y189000D02*
Y197500D01*
Y189000D02*
X525000Y187500D01*
Y176500D02*
Y187500D01*
X361000Y451500D02*
X362500Y453000D01*
X356500Y379000D02*
X357000Y379500D01*
X344500Y379000D02*
X356500D01*
X264500Y376000D02*
X265500Y375000D01*
X302843Y422000D02*
X323500D01*
X297000Y430500D02*
X298000Y429500D01*
X397500Y462500D02*
X398000Y462000D01*
Y455500D02*
Y462000D01*
X424500Y412000D02*
X429500Y407000D01*
X341500Y438000D02*
X342500Y439000D01*
Y449000D01*
X324000Y449500D02*
Y460500D01*
X326000Y462500D01*
X363500Y459657D02*
Y469000D01*
X357500Y453657D02*
X363500Y459657D01*
X450500Y472500D02*
X459000Y464000D01*
X359500Y470500D02*
Y482000D01*
X357157Y468157D02*
X359500Y470500D01*
X357157Y467000D02*
Y468157D01*
Y467000D02*
X359500Y464657D01*
Y461343D02*
Y464657D01*
X355000Y462500D02*
X355500Y463000D01*
X334500Y410000D02*
X335500Y409000D01*
X364500Y433000D02*
X367500Y436000D01*
X368500Y456657D02*
X371500Y453657D01*
X368500Y456657D02*
Y477000D01*
X335500Y409000D02*
X355500D01*
X464500Y350500D02*
X467500D01*
X404000Y170000D02*
Y255000D01*
X392500Y266500D02*
X404000Y255000D01*
X392500Y266500D02*
X397500D01*
X396500Y387500D02*
X400000Y384000D01*
X410500D01*
X396500Y387500D02*
Y398500D01*
X532000Y392000D02*
X533000Y393000D01*
X533500Y378000D02*
Y390500D01*
X267000Y420500D02*
X273000Y414500D01*
X320500D01*
X298000Y426843D02*
X302843Y422000D01*
X298000Y426843D02*
Y429500D01*
X467500Y350500D02*
X470500Y347500D01*
X487500D01*
X420500Y379000D02*
X421500Y378000D01*
X270000Y336000D02*
X271500Y337500D01*
X275500D01*
X297500Y315500D01*
X449500Y450000D02*
Y462000D01*
X459000Y447953D02*
Y464000D01*
X274500Y123500D02*
X278000Y120000D01*
X274500Y123500D02*
Y135000D01*
X266500Y143000D02*
X274500Y135000D01*
X229500Y143000D02*
X266500D01*
X308000Y111000D02*
X315500Y118500D01*
X230000Y111000D02*
X308000D01*
X230000D02*
Y126500D01*
X226000Y130500D02*
X230000Y126500D01*
X215000Y130500D02*
X226000D01*
X210000Y120000D02*
X213500Y123500D01*
X216500D01*
X219000Y121000D01*
X209500Y120000D02*
X210000D01*
X529000Y271000D02*
Y281185D01*
X530185Y285185D02*
X534500Y289500D01*
X527343Y285185D02*
X530185D01*
X525000Y282842D02*
X527343Y285185D01*
X525000Y280000D02*
Y282842D01*
X521500Y276500D02*
X525000Y280000D01*
X514000Y276500D02*
X521500D01*
X514000D02*
X518500Y272000D01*
Y267000D02*
Y272000D01*
X482000Y230500D02*
X518500Y267000D01*
X441000Y230500D02*
X482000D01*
X516000Y365500D02*
Y400000D01*
X509685Y359185D02*
X516000Y365500D01*
X341000Y120500D02*
X343000D01*
X327000Y106500D02*
X341000Y120500D01*
X222500Y106500D02*
X327000D01*
X219000Y110000D02*
X222500Y106500D01*
X219000Y110000D02*
Y121000D01*
X459000Y447953D02*
X467844D01*
X472297Y443500D01*
X541500Y297500D02*
X543000Y296000D01*
X536500Y297500D02*
X541500D01*
X534500Y295500D02*
X536500Y297500D01*
X534500Y289500D02*
Y295500D01*
X424500Y214000D02*
X441000Y230500D01*
X191500Y222500D02*
X223000D01*
X333500Y311000D02*
Y329500D01*
X271000Y248500D02*
X333500Y311000D01*
X271000Y234500D02*
Y248500D01*
X245000Y208500D02*
X271000Y234500D01*
X237500Y216000D02*
X245000Y208500D01*
X181500Y216000D02*
X237500D01*
X179500Y214000D02*
X181500Y216000D01*
X179500Y206000D02*
Y214000D01*
D20*
X311531Y439000D02*
X315469D01*
X313500Y437032D02*
Y440969D01*
X211311Y198488D02*
Y209512D01*
X227059Y198488D02*
Y209512D01*
X211311D02*
X227059D01*
X211311Y198488D02*
X227059D01*
X217216Y204000D02*
X221153D01*
X219185Y202031D02*
Y205968D01*
X280335Y167276D02*
X284665D01*
X280335Y176724D02*
X284665D01*
X280335Y167276D02*
Y176724D01*
X284665Y167276D02*
Y176724D01*
X282500Y170130D02*
Y173870D01*
X280630Y172000D02*
X284370D01*
X284835Y131961D02*
X289165D01*
X284835Y141410D02*
X289165D01*
X284835Y131961D02*
Y141410D01*
X289165Y131961D02*
Y141410D01*
X287000Y134815D02*
Y138555D01*
X285130Y136685D02*
X288870D01*
X498835Y270224D02*
X503165D01*
X498835Y260776D02*
X503165D01*
Y270224D01*
X498835Y260776D02*
Y270224D01*
X501000Y263630D02*
Y267370D01*
X499130Y265500D02*
X502870D01*
X313335Y133276D02*
X317665D01*
X313335Y142724D02*
X317665D01*
X313335Y133276D02*
Y142724D01*
X317665Y133276D02*
Y142724D01*
X315500Y136130D02*
Y139870D01*
X313630Y138000D02*
X317370D01*
X469835Y239276D02*
X474165D01*
X469835Y248724D02*
X474165D01*
X469835Y239276D02*
Y248724D01*
X474165Y239276D02*
Y248724D01*
X472000Y242130D02*
Y245870D01*
X470130Y244000D02*
X473870D01*
X342335Y132276D02*
X346665D01*
X342335Y141724D02*
X346665D01*
X342335Y132276D02*
Y141724D01*
X346665Y132276D02*
Y141724D01*
X344500Y135130D02*
Y138870D01*
X342630Y137000D02*
X346370D01*
X654461Y443835D02*
Y448165D01*
X663909Y443835D02*
Y448165D01*
X654461D02*
X663909D01*
X654461Y443835D02*
X663909D01*
X657315Y446000D02*
X661055D01*
X659185Y444130D02*
Y447870D01*
X519724Y298335D02*
Y302665D01*
X510276Y298335D02*
Y302665D01*
Y298335D02*
X519724D01*
X510276Y302665D02*
X519724D01*
X513130Y300500D02*
X516870D01*
X515000Y298630D02*
Y302370D01*
X271591Y469835D02*
Y474165D01*
X281039Y469835D02*
Y474165D01*
X271591D02*
X281039D01*
X271591Y469835D02*
X281039D01*
X274445Y472000D02*
X278185D01*
X276315Y470130D02*
Y473870D01*
X345224Y427835D02*
Y432165D01*
X335776Y427835D02*
Y432165D01*
Y427835D02*
X345224D01*
X335776Y432165D02*
X345224D01*
X338630Y430000D02*
X342370D01*
X340500Y428130D02*
Y431870D01*
X307776Y463835D02*
Y468165D01*
X317224Y463835D02*
Y468165D01*
X307776D02*
X317224D01*
X307776Y463835D02*
X317224D01*
X310630Y466000D02*
X314370D01*
X312500Y464130D02*
Y467870D01*
X349276Y440835D02*
Y445165D01*
X358724Y440835D02*
Y445165D01*
X349276D02*
X358724D01*
X349276Y440835D02*
X358724D01*
X352130Y443000D02*
X355870D01*
X354000Y441130D02*
Y444870D01*
X270311Y280988D02*
Y292012D01*
X286059Y280988D02*
Y292012D01*
X270311D02*
X286059D01*
X270311Y280988D02*
X286059D01*
X276217Y286500D02*
X280153D01*
X278185Y284531D02*
Y288469D01*
X473811Y178488D02*
Y189512D01*
X489559Y178488D02*
Y189512D01*
X473811D02*
X489559D01*
X473811Y178488D02*
X489559D01*
X479716Y184000D02*
X483653D01*
X481685Y182032D02*
Y185968D01*
X587941Y171488D02*
Y182512D01*
X603689Y171488D02*
Y182512D01*
X587941D02*
X603689D01*
X587941Y171488D02*
X603689D01*
X593847Y177000D02*
X597784D01*
X595815Y175031D02*
Y178969D01*
X381126Y154988D02*
Y166012D01*
X396874Y154988D02*
Y166012D01*
X381126D02*
X396874D01*
X381126Y154988D02*
X396874D01*
X387032Y160500D02*
X390968D01*
X389000Y158531D02*
Y162469D01*
X648126Y466488D02*
Y477512D01*
X663874Y466488D02*
Y477512D01*
X648126D02*
X663874D01*
X648126Y466488D02*
X663874D01*
X654032Y472000D02*
X657969D01*
X656000Y470031D02*
Y473969D01*
X489126Y379488D02*
Y390512D01*
X504874Y379488D02*
Y390512D01*
X489126D02*
X504874D01*
X489126Y379488D02*
X504874D01*
X495031Y385000D02*
X498969D01*
X497000Y383032D02*
Y386968D01*
X611811Y234488D02*
Y245512D01*
X627559Y234488D02*
Y245512D01*
X611811D02*
X627559D01*
X611811Y234488D02*
X627559D01*
X617717Y240000D02*
X621654D01*
X619685Y238032D02*
Y241968D01*
X272150Y336543D02*
X315850D01*
X272150Y401504D02*
X315850D01*
X272150Y336543D02*
Y401504D01*
X315850Y336543D02*
Y401504D01*
X294000Y367055D02*
Y370992D01*
X292032Y369024D02*
X295969D01*
X566626Y304260D02*
Y311740D01*
X582374Y304260D02*
Y311740D01*
X566626D02*
X582374D01*
X566626Y304260D02*
X582374D01*
X572532Y308000D02*
X576469D01*
X574500Y306031D02*
Y309968D01*
X559626Y372760D02*
Y380240D01*
X575374Y372760D02*
Y380240D01*
X559626D02*
X575374D01*
X559626Y372760D02*
X575374D01*
X565531Y376500D02*
X569468D01*
X567500Y374532D02*
Y378468D01*
X560626Y342260D02*
Y349740D01*
X576374Y342260D02*
Y349740D01*
X560626D02*
X576374D01*
X560626Y342260D02*
X576374D01*
X566532Y346000D02*
X570469D01*
X568500Y344032D02*
Y347969D01*
X528441Y403760D02*
Y411240D01*
X544189Y403760D02*
Y411240D01*
X528441D02*
X544189D01*
X528441Y403760D02*
X544189D01*
X534346Y407500D02*
X538283D01*
X536315Y405532D02*
Y409469D01*
D61*
X648000Y316000D02*
X651500Y312500D01*
X605000Y316000D02*
X648000D01*
X613000Y378000D02*
Y398500D01*
X589500Y354500D02*
X613000Y378000D01*
X564000Y354500D02*
X589500D01*
X440000Y406000D02*
X443000Y409000D01*
X440000Y400000D02*
Y406000D01*
X443000Y409000D02*
X468500D01*
X440000Y400000D02*
X440500Y399500D01*
X468500Y409000D02*
X470500Y411000D01*
Y425000D01*
X651500Y299000D02*
Y312500D01*
X613000Y398500D02*
X618500Y404000D01*
D62*
X124874Y438378D02*
D03*
Y446252D02*
D03*
Y454126D02*
D03*
X118874Y432354D02*
D03*
Y442197D02*
D03*
Y450071D02*
D03*
Y459913D02*
D03*
D63*
X111000Y420268D02*
D03*
Y472000D02*
D03*
D64*
X263500Y127000D02*
D03*
X243500Y127000D02*
D03*
X560000Y151500D02*
D03*
Y171500D02*
D03*
X658500Y359000D02*
D03*
Y379000D02*
D03*
X652000Y154500D02*
D03*
Y174500D02*
D03*
X626000Y356500D02*
D03*
Y376500D02*
D03*
X349500Y299500D02*
D03*
Y319500D02*
D03*
X334000Y178000D02*
D03*
Y198000D02*
D03*
X334500Y383000D02*
D03*
X334500Y353000D02*
D03*
X363500Y184500D02*
D03*
Y214500D02*
D03*
X244000Y357000D02*
D03*
Y387000D02*
D03*
X394000Y330000D02*
D03*
X394000Y300000D02*
D03*
X430500Y154500D02*
D03*
Y184500D02*
D03*
X392500Y236500D02*
D03*
Y266500D02*
D03*
X554000Y422500D02*
D03*
Y452500D02*
D03*
X457500Y186000D02*
D03*
X457500Y156000D02*
D03*
X525000Y176500D02*
D03*
X525000Y146500D02*
D03*
X672000Y296000D02*
D03*
Y326000D02*
D03*
X680500Y374000D02*
D03*
Y404000D02*
D03*
X599000Y382500D02*
D03*
Y412500D02*
D03*
X308000Y212500D02*
D03*
X308000Y182500D02*
D03*
D65*
X277500Y213500D02*
D03*
X543000Y296000D02*
D03*
D66*
X277500Y193500D02*
D03*
X543000Y276000D02*
D03*
D67*
X244500Y322000D02*
D03*
Y312000D02*
D03*
Y302000D02*
D03*
Y292000D02*
D03*
Y282000D02*
D03*
X466500Y472500D02*
D03*
X476500D02*
D03*
X466500Y462500D02*
D03*
X476500D02*
D03*
X466500Y452500D02*
D03*
X476500D02*
D03*
X466500Y442500D02*
D03*
X476500D02*
D03*
X466500Y432500D02*
D03*
D68*
X244500Y272000D02*
D03*
X476500Y432500D02*
D03*
D69*
X203500Y438500D02*
D03*
X210000Y451500D02*
D03*
X209000Y426000D02*
D03*
X234000D02*
D03*
X233500Y451000D02*
D03*
X239178Y438500D02*
D03*
D70*
X432000Y252000D02*
D03*
Y262000D02*
D03*
X632000Y292000D02*
D03*
X622000D02*
D03*
X597500Y451000D02*
D03*
X587500D02*
D03*
D71*
X627500Y426500D02*
D03*
D72*
X647185Y426500D02*
D03*
D73*
X201000Y207500D02*
D03*
X199000Y167000D02*
D03*
X225000Y186500D02*
D03*
X605000Y316000D02*
D03*
X370000Y407500D02*
D03*
X386500Y396500D02*
D03*
X370500Y390500D02*
D03*
X397500Y422000D02*
D03*
X337000Y493000D02*
D03*
X333500Y461500D02*
D03*
X266500Y297000D02*
D03*
X312500Y309000D02*
D03*
X397500Y374000D02*
D03*
X429500Y380000D02*
D03*
X391500Y416500D02*
D03*
X392051Y431449D02*
D03*
X353500Y431500D02*
D03*
X308000Y452500D02*
D03*
X271500Y460000D02*
D03*
X674000Y360500D02*
D03*
X634500Y389000D02*
D03*
X562185Y366685D02*
D03*
X564000Y354500D02*
D03*
X430000Y360000D02*
D03*
X434500Y347000D02*
D03*
X328000Y429500D02*
D03*
X345500Y421500D02*
D03*
X325000Y410000D02*
D03*
X369000Y366000D02*
D03*
X365500Y372500D02*
D03*
X371500Y379000D02*
D03*
X440500Y399500D02*
D03*
X470500Y425000D02*
D03*
X677000Y481500D02*
D03*
X682500Y292500D02*
D03*
X297815Y166685D02*
D03*
X659500Y426000D02*
D03*
X565500Y337000D02*
D03*
X542500Y336000D02*
D03*
X431000Y286500D02*
D03*
X230500Y354500D02*
D03*
X183000Y430000D02*
D03*
X377000Y184500D02*
D03*
X415000Y185000D02*
D03*
X557000Y274000D02*
D03*
X576500Y178000D02*
D03*
X523500Y197500D02*
D03*
X483000Y382500D02*
D03*
X357000Y379500D02*
D03*
X344500Y379000D02*
D03*
X265500Y408500D02*
D03*
X264500Y376000D02*
D03*
X297000Y430500D02*
D03*
X324000Y449500D02*
D03*
X342500Y449000D02*
D03*
X341500Y438000D02*
D03*
X397500Y462500D02*
D03*
X362500Y453000D02*
D03*
X445000Y479500D02*
D03*
X355500Y463000D02*
D03*
X363500Y469000D02*
D03*
X359500Y482000D02*
D03*
X408500Y471500D02*
D03*
X496000Y338500D02*
D03*
X421000Y351000D02*
D03*
X464500Y350500D02*
D03*
X368500Y477000D02*
D03*
X404000Y170000D02*
D03*
X415000Y356500D02*
D03*
X410500Y384000D02*
D03*
X396500Y398500D02*
D03*
X367500Y436000D02*
D03*
X533000Y393000D02*
D03*
X533500Y378000D02*
D03*
X355500Y409000D02*
D03*
X267000Y420500D02*
D03*
X304500Y426000D02*
D03*
X651500Y299000D02*
D03*
X487500Y347500D02*
D03*
X421500Y378000D02*
D03*
X270000Y336000D02*
D03*
X297500Y315500D02*
D03*
X449500Y462000D02*
D03*
Y450000D02*
D03*
X530000Y343000D02*
D03*
X278000Y120000D02*
D03*
X229500Y143000D02*
D03*
X315500Y118500D02*
D03*
X215000Y130500D02*
D03*
X209500Y120000D02*
D03*
X603500Y195000D02*
D03*
X529000Y281185D02*
D03*
X516000Y400000D02*
D03*
X509685Y359185D02*
D03*
X343000Y120500D02*
D03*
X514000Y276500D02*
D03*
X424500Y214000D02*
D03*
X191500Y222500D02*
D03*
X245000Y208500D02*
D03*
X179500Y206000D02*
D03*
X618500Y404000D02*
D03*
M02*
