M48
;Layer_Color=9474304
;FILE_FORMAT=2:5
INCH,LZ
;TYPE=PLATED
T1F00S00C0.02756
T2F00S00C0.02756
T3F00S00C0.02800
T4F00S00C0.03150
T5F00S00C0.03543
T6F00S00C0.04331
T7F00S00C0.04724
T8F00S00C0.09055
%
T01
X0118874Y0432354
Y0442197
Y0450071
X0124874Y0446252
Y0454126
X0118874Y0459913
X0124874Y0438378
T02
X02435Y0127
X02635Y0127
X04305Y01545
X04575Y0156
X0525Y01465
X056Y01515
X0652Y01545
Y01745
X0672Y0296
X056Y01715
X0525Y01765
X04575Y0186
X04305Y01845
X03635
Y02145
X0334Y0198
Y0178
X03925Y02365
Y02665
X0394Y03
X03495Y02995
X0308Y02125
X0308Y01825
X0244Y0357
Y0387
X03345Y0383
X03345Y0353
X03495Y03195
X0394Y033
X0554Y04225
Y04525
X0599Y04125
Y03825
X0626Y03765
Y03565
X06585Y0359
Y0379
X06805Y0374
Y0404
X0672Y0326
T03
X02095Y012
X0215Y01305
X02295Y0143
X0278Y012
X03155Y01185
X0343Y01205
X06515Y0299
X06825Y02925
X0529Y0281185
X0514Y02765
X06035Y0195
X04245Y0214
X0404Y017
X0431Y02865
X03125Y0309
X02665Y0297
X0245Y02085
X0225Y01865
X0201Y02075
X01795Y0206
X01915Y02225
X0199Y0167
X0297815Y0166685
X02975Y03155
X027Y0336
X02645Y0376
X02655Y04085
X0267Y04205
X0297Y04305
X03045Y0426
X0308Y04525
X02715Y046
X0324Y04495
X03425Y0449
X03415Y0438
X03535Y04315
X03455Y04215
X03555Y0409
X037Y04075
X03705Y03905
X03715Y0379
X03655Y03725
X0369Y0366
X0357Y03795
X03445Y0379
X0325Y041
X0328Y04295
X03335Y04615
X03555Y0463
X03625Y0453
X03675Y0436
X0392051Y0431449
X03975Y0422
X03915Y04165
X03965Y03985
X03865Y03965
X03975Y0374
X04105Y0384
X04215Y0378
X04295Y038
X043Y036
X04345Y0347
X0421Y0351
X0415Y03565
X04645Y03505
X04405Y03995
X04495Y045
Y0462
X03975Y04625
X04705Y0425
X0483Y03825
X04875Y03475
X0496Y03385
X0509685Y0359185
X053Y0343
X05425Y0336
X05655Y0337
X0564Y03545
X0562185Y0366685
X05335Y0378
X0533Y0393
X0516Y04
X06185Y0404
X0605Y0316
X06345Y0389
X0677Y04815
X0445Y04795
X04085Y04715
X03685Y0477
X03635Y0469
X03595Y0482
X0337Y0493
T04
X0632Y0292
X0622
X0432Y0262
Y0252
X05875Y0451
X05975
X06275Y04265
X0647185Y04265
T05
X02445Y0272
Y0282
Y0292
Y0302
Y0312
Y0322
X04665Y04325
Y04425
Y04525
Y04625
X04765
Y04525
Y04425
Y04325
Y04725
X04665
T06
X0543Y0276
Y0296
X02775Y02135
Y01935
T07
X0209Y0426
X02035Y04385
X021Y04515
X02335Y0451
X0239178Y04385
X0234Y0426
T08
X0111Y0420268
Y0472
M30
