G04*
G04 #@! TF.GenerationSoftware,Altium Limited,Altium Designer,18.0.11 (651)*
G04*
G04 Layer_Color=128*
%FSLAX25Y25*%
%MOIN*%
G70*
G01*
G75*
%ADD17C,0.00800*%
%ADD20C,0.00394*%
%ADD88C,0.00200*%
D17*
X319799Y429945D02*
Y448055D01*
X307201Y429945D02*
Y448055D01*
Y429945D02*
X319799D01*
X307201Y448055D02*
X319799D01*
D20*
X311531Y439000D02*
X315469D01*
X313500Y437032D02*
Y440969D01*
X211311Y198488D02*
Y209512D01*
X227059Y198488D02*
Y209512D01*
X211311D02*
X227059D01*
X211311Y198488D02*
X227059D01*
X217216Y204000D02*
X221153D01*
X219185Y202031D02*
Y205968D01*
X280335Y167276D02*
X284665D01*
X280335Y176724D02*
X284665D01*
X280335Y167276D02*
Y176724D01*
X284665Y167276D02*
Y176724D01*
X282500Y170130D02*
Y173870D01*
X280630Y172000D02*
X284370D01*
X284835Y131961D02*
X289165D01*
X284835Y141410D02*
X289165D01*
X284835Y131961D02*
Y141410D01*
X289165Y131961D02*
Y141410D01*
X287000Y134815D02*
Y138555D01*
X285130Y136685D02*
X288870D01*
X498835Y270224D02*
X503165D01*
X498835Y260776D02*
X503165D01*
Y270224D01*
X498835Y260776D02*
Y270224D01*
X501000Y263630D02*
Y267370D01*
X499130Y265500D02*
X502870D01*
X313335Y133276D02*
X317665D01*
X313335Y142724D02*
X317665D01*
X313335Y133276D02*
Y142724D01*
X317665Y133276D02*
Y142724D01*
X315500Y136130D02*
Y139870D01*
X313630Y138000D02*
X317370D01*
X469835Y239276D02*
X474165D01*
X469835Y248724D02*
X474165D01*
X469835Y239276D02*
Y248724D01*
X474165Y239276D02*
Y248724D01*
X472000Y242130D02*
Y245870D01*
X470130Y244000D02*
X473870D01*
X342335Y132276D02*
X346665D01*
X342335Y141724D02*
X346665D01*
X342335Y132276D02*
Y141724D01*
X346665Y132276D02*
Y141724D01*
X344500Y135130D02*
Y138870D01*
X342630Y137000D02*
X346370D01*
X654461Y443835D02*
Y448165D01*
X663909Y443835D02*
Y448165D01*
X654461D02*
X663909D01*
X654461Y443835D02*
X663909D01*
X657315Y446000D02*
X661055D01*
X659185Y444130D02*
Y447870D01*
X519724Y298335D02*
Y302665D01*
X510276Y298335D02*
Y302665D01*
Y298335D02*
X519724D01*
X510276Y302665D02*
X519724D01*
X513130Y300500D02*
X516870D01*
X515000Y298630D02*
Y302370D01*
X271591Y469835D02*
Y474165D01*
X281039Y469835D02*
Y474165D01*
X271591D02*
X281039D01*
X271591Y469835D02*
X281039D01*
X274445Y472000D02*
X278185D01*
X276315Y470130D02*
Y473870D01*
X345224Y427835D02*
Y432165D01*
X335776Y427835D02*
Y432165D01*
Y427835D02*
X345224D01*
X335776Y432165D02*
X345224D01*
X338630Y430000D02*
X342370D01*
X340500Y428130D02*
Y431870D01*
X307776Y463835D02*
Y468165D01*
X317224Y463835D02*
Y468165D01*
X307776D02*
X317224D01*
X307776Y463835D02*
X317224D01*
X310630Y466000D02*
X314370D01*
X312500Y464130D02*
Y467870D01*
X349276Y440835D02*
Y445165D01*
X358724Y440835D02*
Y445165D01*
X349276D02*
X358724D01*
X349276Y440835D02*
X358724D01*
X352130Y443000D02*
X355870D01*
X354000Y441130D02*
Y444870D01*
X270311Y280988D02*
Y292012D01*
X286059Y280988D02*
Y292012D01*
X270311D02*
X286059D01*
X270311Y280988D02*
X286059D01*
X276217Y286500D02*
X280153D01*
X278185Y284531D02*
Y288469D01*
X473811Y178488D02*
Y189512D01*
X489559Y178488D02*
Y189512D01*
X473811D02*
X489559D01*
X473811Y178488D02*
X489559D01*
X479716Y184000D02*
X483653D01*
X481685Y182032D02*
Y185968D01*
X587941Y171488D02*
Y182512D01*
X603689Y171488D02*
Y182512D01*
X587941D02*
X603689D01*
X587941Y171488D02*
X603689D01*
X593847Y177000D02*
X597784D01*
X595815Y175031D02*
Y178969D01*
X381126Y154988D02*
Y166012D01*
X396874Y154988D02*
Y166012D01*
X381126D02*
X396874D01*
X381126Y154988D02*
X396874D01*
X387032Y160500D02*
X390968D01*
X389000Y158531D02*
Y162469D01*
X648126Y466488D02*
Y477512D01*
X663874Y466488D02*
Y477512D01*
X648126D02*
X663874D01*
X648126Y466488D02*
X663874D01*
X654032Y472000D02*
X657969D01*
X656000Y470031D02*
Y473969D01*
X489126Y379488D02*
Y390512D01*
X504874Y379488D02*
Y390512D01*
X489126D02*
X504874D01*
X489126Y379488D02*
X504874D01*
X495031Y385000D02*
X498969D01*
X497000Y383032D02*
Y386968D01*
X611811Y234488D02*
Y245512D01*
X627559Y234488D02*
Y245512D01*
X611811D02*
X627559D01*
X611811Y234488D02*
X627559D01*
X617717Y240000D02*
X621654D01*
X619685Y238032D02*
Y241968D01*
X272150Y336543D02*
X315850D01*
X272150Y401504D02*
X315850D01*
X272150Y336543D02*
Y401504D01*
X315850Y336543D02*
Y401504D01*
X294000Y367055D02*
Y370992D01*
X292032Y369024D02*
X295969D01*
X566626Y304260D02*
Y311740D01*
X582374Y304260D02*
Y311740D01*
X566626D02*
X582374D01*
X566626Y304260D02*
X582374D01*
X572532Y308000D02*
X576469D01*
X574500Y306031D02*
Y309968D01*
X559626Y372760D02*
Y380240D01*
X575374Y372760D02*
Y380240D01*
X559626D02*
X575374D01*
X559626Y372760D02*
X575374D01*
X565531Y376500D02*
X569468D01*
X567500Y374532D02*
Y378468D01*
X560626Y342260D02*
Y349740D01*
X576374Y342260D02*
Y349740D01*
X560626D02*
X576374D01*
X560626Y342260D02*
X576374D01*
X566532Y346000D02*
X570469D01*
X568500Y344032D02*
Y347969D01*
X528441Y403760D02*
Y411240D01*
X544189Y403760D02*
Y411240D01*
X528441D02*
X544189D01*
X528441Y403760D02*
X544189D01*
X534346Y407500D02*
X538283D01*
X536315Y405532D02*
Y409469D01*
D88*
X123496Y438378D02*
X126252D01*
X124874Y437000D02*
Y439756D01*
X123496Y446252D02*
X126252D01*
X124874Y444874D02*
Y447630D01*
X123496Y454126D02*
X126252D01*
X124874Y452748D02*
Y455504D01*
X117496Y432354D02*
X120252D01*
X118874Y430976D02*
Y433732D01*
X117496Y442197D02*
X120252D01*
X118874Y440819D02*
Y443575D01*
X117496Y450071D02*
X120252D01*
X118874Y448693D02*
Y451449D01*
X117496Y459913D02*
X120252D01*
X118874Y458535D02*
Y461291D01*
X106472Y420268D02*
X115528D01*
X111000Y415740D02*
Y424795D01*
X106472Y472000D02*
X115528D01*
X111000Y467472D02*
Y476528D01*
X262122Y127000D02*
X264878D01*
X263500Y125622D02*
Y128378D01*
X242122Y127000D02*
X244878D01*
X243500Y125622D02*
Y128378D01*
X558622Y151500D02*
X561378D01*
X560000Y150122D02*
Y152878D01*
X558622Y171500D02*
X561378D01*
X560000Y170122D02*
Y172878D01*
X657122Y359000D02*
X659878D01*
X658500Y357622D02*
Y360378D01*
X657122Y379000D02*
X659878D01*
X658500Y377622D02*
Y380378D01*
X650622Y154500D02*
X653378D01*
X652000Y153122D02*
Y155878D01*
X650622Y174500D02*
X653378D01*
X652000Y173122D02*
Y175878D01*
X624622Y356500D02*
X627378D01*
X626000Y355122D02*
Y357878D01*
X624622Y376500D02*
X627378D01*
X626000Y375122D02*
Y377878D01*
X348122Y299500D02*
X350878D01*
X349500Y298122D02*
Y300878D01*
X348122Y319500D02*
X350878D01*
X349500Y318122D02*
Y320878D01*
X332622Y178000D02*
X335378D01*
X334000Y176622D02*
Y179378D01*
X332622Y198000D02*
X335378D01*
X334000Y196622D02*
Y199378D01*
X275335Y213500D02*
X279665D01*
X277500Y211335D02*
Y215665D01*
X275335Y193500D02*
X279665D01*
X277500Y191335D02*
Y195665D01*
X540835Y296000D02*
X545165D01*
X543000Y293835D02*
Y298165D01*
X540835Y276000D02*
X545165D01*
X543000Y273835D02*
Y278165D01*
X242728Y322000D02*
X246272D01*
X244500Y320228D02*
Y323772D01*
X242728Y312000D02*
X246272D01*
X244500Y310228D02*
Y313772D01*
X242728Y302000D02*
X246272D01*
X244500Y300228D02*
Y303772D01*
X242728Y292000D02*
X246272D01*
X244500Y290228D02*
Y293772D01*
X242728Y282000D02*
X246272D01*
X244500Y280228D02*
Y283772D01*
X242728Y272000D02*
X246272D01*
X244500Y270228D02*
Y273772D01*
X201138Y438500D02*
X205862D01*
X203500Y436138D02*
Y440862D01*
X207638Y451500D02*
X212362D01*
X210000Y449138D02*
Y453862D01*
X206638Y426000D02*
X211362D01*
X209000Y423638D02*
Y428362D01*
X231638Y426000D02*
X236362D01*
X234000Y423638D02*
Y428362D01*
X231138Y451000D02*
X235862D01*
X233500Y448638D02*
Y453362D01*
X236816Y438500D02*
X241540D01*
X239178Y436138D02*
Y440862D01*
X464728Y472500D02*
X468272D01*
X466500Y470728D02*
Y474272D01*
X474728Y472500D02*
X478272D01*
X476500Y470728D02*
Y474272D01*
X464728Y462500D02*
X468272D01*
X466500Y460728D02*
Y464272D01*
X474728Y462500D02*
X478272D01*
X476500Y460728D02*
Y464272D01*
X464728Y452500D02*
X468272D01*
X466500Y450728D02*
Y454272D01*
X474728Y452500D02*
X478272D01*
X476500Y450728D02*
Y454272D01*
X464728Y442500D02*
X468272D01*
X466500Y440728D02*
Y444272D01*
X474728Y442500D02*
X478272D01*
X476500Y440728D02*
Y444272D01*
X464728Y432500D02*
X468272D01*
X466500Y430728D02*
Y434272D01*
X474728Y432500D02*
X478272D01*
X476500Y430728D02*
Y434272D01*
X430425Y252000D02*
X433575D01*
X432000Y250425D02*
Y253575D01*
X430425Y262000D02*
X433575D01*
X432000Y260425D02*
Y263575D01*
X630425Y292000D02*
X633575D01*
X632000Y290425D02*
Y293575D01*
X620425Y292000D02*
X623575D01*
X622000Y290425D02*
Y293575D01*
X595925Y451000D02*
X599075D01*
X597500Y449425D02*
Y452575D01*
X585925Y451000D02*
X589075D01*
X587500Y449425D02*
Y452575D01*
X333122Y383000D02*
X335878D01*
X334500Y381622D02*
Y384378D01*
X333122Y353000D02*
X335878D01*
X334500Y351622D02*
Y354378D01*
X362122Y184500D02*
X364878D01*
X363500Y183122D02*
Y185878D01*
X362122Y214500D02*
X364878D01*
X363500Y213122D02*
Y215878D01*
X242622Y357000D02*
X245378D01*
X244000Y355622D02*
Y358378D01*
X242622Y387000D02*
X245378D01*
X244000Y385622D02*
Y388378D01*
X392622Y330000D02*
X395378D01*
X394000Y328622D02*
Y331378D01*
X392622Y300000D02*
X395378D01*
X394000Y298622D02*
Y301378D01*
X429122Y154500D02*
X431878D01*
X430500Y153122D02*
Y155878D01*
X429122Y184500D02*
X431878D01*
X430500Y183122D02*
Y185878D01*
X391122Y236500D02*
X393878D01*
X392500Y235122D02*
Y237878D01*
X391122Y266500D02*
X393878D01*
X392500Y265122D02*
Y267878D01*
X552622Y422500D02*
X555378D01*
X554000Y421122D02*
Y423878D01*
X552622Y452500D02*
X555378D01*
X554000Y451122D02*
Y453878D01*
X456122Y186000D02*
X458878D01*
X457500Y184622D02*
Y187378D01*
X456122Y156000D02*
X458878D01*
X457500Y154622D02*
Y157378D01*
X523622Y176500D02*
X526378D01*
X525000Y175122D02*
Y177878D01*
X523622Y146500D02*
X526378D01*
X525000Y145122D02*
Y147878D01*
X670622Y296000D02*
X673378D01*
X672000Y294622D02*
Y297378D01*
X670622Y326000D02*
X673378D01*
X672000Y324622D02*
Y327378D01*
X679122Y374000D02*
X681878D01*
X680500Y372622D02*
Y375378D01*
X679122Y404000D02*
X681878D01*
X680500Y402622D02*
Y405378D01*
X625925Y426500D02*
X629075D01*
X627500Y424925D02*
Y428075D01*
X645610Y426500D02*
X648760D01*
X647185Y424925D02*
Y428075D01*
X597622Y382500D02*
X600378D01*
X599000Y381122D02*
Y383878D01*
X597622Y412500D02*
X600378D01*
X599000Y411122D02*
Y413878D01*
X306622Y212500D02*
X309378D01*
X308000Y211122D02*
Y213878D01*
X306622Y182500D02*
X309378D01*
X308000Y181122D02*
Y183878D01*
X199600Y207500D02*
X202400D01*
X201000Y206100D02*
Y208900D01*
X197600Y167000D02*
X200400D01*
X199000Y165600D02*
Y168400D01*
X223600Y186500D02*
X226400D01*
X225000Y185100D02*
Y187900D01*
X603600Y316000D02*
X606400D01*
X605000Y314600D02*
Y317400D01*
X368600Y407500D02*
X371400D01*
X370000Y406100D02*
Y408900D01*
X385100Y396500D02*
X387900D01*
X386500Y395100D02*
Y397900D01*
X369100Y390500D02*
X371900D01*
X370500Y389100D02*
Y391900D01*
X396100Y422000D02*
X398900D01*
X397500Y420600D02*
Y423400D01*
X335600Y493000D02*
X338400D01*
X337000Y491600D02*
Y494400D01*
X332100Y461500D02*
X334900D01*
X333500Y460100D02*
Y462900D01*
X265100Y297000D02*
X267900D01*
X266500Y295600D02*
Y298400D01*
X311100Y309000D02*
X313900D01*
X312500Y307600D02*
Y310400D01*
X396100Y374000D02*
X398900D01*
X397500Y372600D02*
Y375400D01*
X428100Y380000D02*
X430900D01*
X429500Y378600D02*
Y381400D01*
X390100Y416500D02*
X392900D01*
X391500Y415100D02*
Y417900D01*
X390651Y431449D02*
X393451D01*
X392051Y430049D02*
Y432849D01*
X352100Y431500D02*
X354900D01*
X353500Y430100D02*
Y432900D01*
X306600Y452500D02*
X309400D01*
X308000Y451100D02*
Y453900D01*
X270100Y460000D02*
X272900D01*
X271500Y458600D02*
Y461400D01*
X633100Y389000D02*
X635900D01*
X634500Y387600D02*
Y390400D01*
X560785Y366685D02*
X563585D01*
X562185Y365285D02*
Y368085D01*
X562600Y354500D02*
X565400D01*
X564000Y353100D02*
Y355900D01*
X428600Y360000D02*
X431400D01*
X430000Y358600D02*
Y361400D01*
X433100Y347000D02*
X435900D01*
X434500Y345600D02*
Y348400D01*
X326600Y429500D02*
X329400D01*
X328000Y428100D02*
Y430900D01*
X344100Y421500D02*
X346900D01*
X345500Y420100D02*
Y422900D01*
X323600Y410000D02*
X326400D01*
X325000Y408600D02*
Y411400D01*
X367600Y366000D02*
X370400D01*
X369000Y364600D02*
Y367400D01*
X364100Y372500D02*
X366900D01*
X365500Y371100D02*
Y373900D01*
X370100Y379000D02*
X372900D01*
X371500Y377600D02*
Y380400D01*
X439100Y399500D02*
X441900D01*
X440500Y398100D02*
Y400900D01*
X469100Y425000D02*
X471900D01*
X470500Y423600D02*
Y426400D01*
X675600Y481500D02*
X678400D01*
X677000Y480100D02*
Y482900D01*
X681100Y292500D02*
X683900D01*
X682500Y291100D02*
Y293900D01*
X296415Y166685D02*
X299215D01*
X297815Y165285D02*
Y168085D01*
X564100Y337000D02*
X566900D01*
X565500Y335600D02*
Y338400D01*
X541100Y336000D02*
X543900D01*
X542500Y334600D02*
Y337400D01*
X429600Y286500D02*
X432400D01*
X431000Y285100D02*
Y287900D01*
X481600Y382500D02*
X484400D01*
X483000Y381100D02*
Y383900D01*
X355600Y379500D02*
X358400D01*
X357000Y378100D02*
Y380900D01*
X343100Y379000D02*
X345900D01*
X344500Y377600D02*
Y380400D01*
X264100Y408500D02*
X266900D01*
X265500Y407100D02*
Y409900D01*
X263100Y376000D02*
X265900D01*
X264500Y374600D02*
Y377400D01*
X295600Y430500D02*
X298400D01*
X297000Y429100D02*
Y431900D01*
X322600Y449500D02*
X325400D01*
X324000Y448100D02*
Y450900D01*
X341100Y449000D02*
X343900D01*
X342500Y447600D02*
Y450400D01*
X340100Y438000D02*
X342900D01*
X341500Y436600D02*
Y439400D01*
X396100Y462500D02*
X398900D01*
X397500Y461100D02*
Y463900D01*
X361100Y453000D02*
X363900D01*
X362500Y451600D02*
Y454400D01*
X443600Y479500D02*
X446400D01*
X445000Y478100D02*
Y480900D01*
X354100Y463000D02*
X356900D01*
X355500Y461600D02*
Y464400D01*
X362100Y469000D02*
X364900D01*
X363500Y467600D02*
Y470400D01*
X358100Y482000D02*
X360900D01*
X359500Y480600D02*
Y483400D01*
X407100Y471500D02*
X409900D01*
X408500Y470100D02*
Y472900D01*
X494600Y338500D02*
X497400D01*
X496000Y337100D02*
Y339900D01*
X419600Y351000D02*
X422400D01*
X421000Y349600D02*
Y352400D01*
X463100Y350500D02*
X465900D01*
X464500Y349100D02*
Y351900D01*
X367100Y477000D02*
X369900D01*
X368500Y475600D02*
Y478400D01*
X402600Y170000D02*
X405400D01*
X404000Y168600D02*
Y171400D01*
X413600Y356500D02*
X416400D01*
X415000Y355100D02*
Y357900D01*
X409100Y384000D02*
X411900D01*
X410500Y382600D02*
Y385400D01*
X395100Y398500D02*
X397900D01*
X396500Y397100D02*
Y399900D01*
X366100Y436000D02*
X368900D01*
X367500Y434600D02*
Y437400D01*
X531600Y393000D02*
X534400D01*
X533000Y391600D02*
Y394400D01*
X532100Y378000D02*
X534900D01*
X533500Y376600D02*
Y379400D01*
X354100Y409000D02*
X356900D01*
X355500Y407600D02*
Y410400D01*
X265600Y420500D02*
X268400D01*
X267000Y419100D02*
Y421900D01*
X303100Y426000D02*
X305900D01*
X304500Y424600D02*
Y427400D01*
X650100Y299000D02*
X652900D01*
X651500Y297600D02*
Y300400D01*
X486100Y347500D02*
X488900D01*
X487500Y346100D02*
Y348900D01*
X420100Y378000D02*
X422900D01*
X421500Y376600D02*
Y379400D01*
X268600Y336000D02*
X271400D01*
X270000Y334600D02*
Y337400D01*
X296100Y315500D02*
X298900D01*
X297500Y314100D02*
Y316900D01*
X448100Y462000D02*
X450900D01*
X449500Y460600D02*
Y463400D01*
X448100Y450000D02*
X450900D01*
X449500Y448600D02*
Y451400D01*
X528600Y343000D02*
X531400D01*
X530000Y341600D02*
Y344400D01*
X276600Y120000D02*
X279400D01*
X278000Y118600D02*
Y121400D01*
X228100Y143000D02*
X230900D01*
X229500Y141600D02*
Y144400D01*
X314100Y118500D02*
X316900D01*
X315500Y117100D02*
Y119900D01*
X213600Y130500D02*
X216400D01*
X215000Y129100D02*
Y131900D01*
X208100Y120000D02*
X210900D01*
X209500Y118600D02*
Y121400D01*
X602100Y195000D02*
X604900D01*
X603500Y193600D02*
Y196400D01*
X527600Y281185D02*
X530400D01*
X529000Y279785D02*
Y282585D01*
X514600Y400000D02*
X517400D01*
X516000Y398600D02*
Y401400D01*
X508285Y359185D02*
X511085D01*
X509685Y357785D02*
Y360585D01*
X341600Y120500D02*
X344400D01*
X343000Y119100D02*
Y121900D01*
X512600Y276500D02*
X515400D01*
X514000Y275100D02*
Y277900D01*
X423100Y214000D02*
X425900D01*
X424500Y212600D02*
Y215400D01*
X190100Y222500D02*
X192900D01*
X191500Y221100D02*
Y223900D01*
X243600Y208500D02*
X246400D01*
X245000Y207100D02*
Y209900D01*
X178100Y206000D02*
X180900D01*
X179500Y204600D02*
Y207400D01*
X617100Y404000D02*
X619900D01*
X618500Y402600D02*
Y405400D01*
M02*
