G04*
G04 #@! TF.GenerationSoftware,Altium Limited,Altium Designer,18.0.11 (651)*
G04*
G04 Layer_Color=8421504*
%FSLAX25Y25*%
%MOIN*%
G70*
G01*
G75*
%ADD17C,0.00800*%
%ADD20C,0.00394*%
%ADD21R,0.02362X0.01575*%
%ADD22R,0.04331X0.10236*%
%ADD23R,0.03543X0.02756*%
%ADD24R,0.02756X0.03543*%
%ADD25R,0.03543X0.05847*%
%ADD26R,0.04134X0.09449*%
%ADD27R,0.41929X0.35039*%
%ADD28R,0.09449X0.03150*%
%ADD29R,0.03150X0.09449*%
%ADD30R,0.08100X0.02400*%
%ADD31R,0.14961X0.07992*%
%ADD32R,0.07992X0.14961*%
%ADD33R,0.04331X0.06693*%
%ADD34R,0.01968X0.01378*%
D17*
X319799Y429945D02*
Y448055D01*
X307201Y429945D02*
Y448055D01*
Y429945D02*
X319799D01*
X307201Y448055D02*
X319799D01*
D20*
X311531Y439000D02*
X315469D01*
X313500Y437032D02*
Y440969D01*
X211311Y198488D02*
Y209512D01*
X227059Y198488D02*
Y209512D01*
X211311D02*
X227059D01*
X211311Y198488D02*
X227059D01*
X217216Y204000D02*
X221153D01*
X219185Y202031D02*
Y205968D01*
X280335Y167276D02*
X284665D01*
X280335Y176724D02*
X284665D01*
X280335Y167276D02*
Y176724D01*
X284665Y167276D02*
Y176724D01*
X282500Y170130D02*
Y173870D01*
X280630Y172000D02*
X284370D01*
X284835Y131961D02*
X289165D01*
X284835Y141410D02*
X289165D01*
X284835Y131961D02*
Y141410D01*
X289165Y131961D02*
Y141410D01*
X287000Y134815D02*
Y138555D01*
X285130Y136685D02*
X288870D01*
X498835Y270224D02*
X503165D01*
X498835Y260776D02*
X503165D01*
Y270224D01*
X498835Y260776D02*
Y270224D01*
X501000Y263630D02*
Y267370D01*
X499130Y265500D02*
X502870D01*
X313335Y133276D02*
X317665D01*
X313335Y142724D02*
X317665D01*
X313335Y133276D02*
Y142724D01*
X317665Y133276D02*
Y142724D01*
X315500Y136130D02*
Y139870D01*
X313630Y138000D02*
X317370D01*
X469835Y239276D02*
X474165D01*
X469835Y248724D02*
X474165D01*
X469835Y239276D02*
Y248724D01*
X474165Y239276D02*
Y248724D01*
X472000Y242130D02*
Y245870D01*
X470130Y244000D02*
X473870D01*
X342335Y132276D02*
X346665D01*
X342335Y141724D02*
X346665D01*
X342335Y132276D02*
Y141724D01*
X346665Y132276D02*
Y141724D01*
X344500Y135130D02*
Y138870D01*
X342630Y137000D02*
X346370D01*
X654461Y443835D02*
Y448165D01*
X663909Y443835D02*
Y448165D01*
X654461D02*
X663909D01*
X654461Y443835D02*
X663909D01*
X657315Y446000D02*
X661055D01*
X659185Y444130D02*
Y447870D01*
X519724Y298335D02*
Y302665D01*
X510276Y298335D02*
Y302665D01*
Y298335D02*
X519724D01*
X510276Y302665D02*
X519724D01*
X513130Y300500D02*
X516870D01*
X515000Y298630D02*
Y302370D01*
X271591Y469835D02*
Y474165D01*
X281039Y469835D02*
Y474165D01*
X271591D02*
X281039D01*
X271591Y469835D02*
X281039D01*
X274445Y472000D02*
X278185D01*
X276315Y470130D02*
Y473870D01*
X345224Y427835D02*
Y432165D01*
X335776Y427835D02*
Y432165D01*
Y427835D02*
X345224D01*
X335776Y432165D02*
X345224D01*
X338630Y430000D02*
X342370D01*
X340500Y428130D02*
Y431870D01*
X307776Y463835D02*
Y468165D01*
X317224Y463835D02*
Y468165D01*
X307776D02*
X317224D01*
X307776Y463835D02*
X317224D01*
X310630Y466000D02*
X314370D01*
X312500Y464130D02*
Y467870D01*
X349276Y440835D02*
Y445165D01*
X358724Y440835D02*
Y445165D01*
X349276D02*
X358724D01*
X349276Y440835D02*
X358724D01*
X352130Y443000D02*
X355870D01*
X354000Y441130D02*
Y444870D01*
X270311Y280988D02*
Y292012D01*
X286059Y280988D02*
Y292012D01*
X270311D02*
X286059D01*
X270311Y280988D02*
X286059D01*
X276217Y286500D02*
X280153D01*
X278185Y284531D02*
Y288469D01*
X473811Y178488D02*
Y189512D01*
X489559Y178488D02*
Y189512D01*
X473811D02*
X489559D01*
X473811Y178488D02*
X489559D01*
X479716Y184000D02*
X483653D01*
X481685Y182032D02*
Y185968D01*
X587941Y171488D02*
Y182512D01*
X603689Y171488D02*
Y182512D01*
X587941D02*
X603689D01*
X587941Y171488D02*
X603689D01*
X593847Y177000D02*
X597784D01*
X595815Y175031D02*
Y178969D01*
X381126Y154988D02*
Y166012D01*
X396874Y154988D02*
Y166012D01*
X381126D02*
X396874D01*
X381126Y154988D02*
X396874D01*
X387032Y160500D02*
X390968D01*
X389000Y158531D02*
Y162469D01*
X648126Y466488D02*
Y477512D01*
X663874Y466488D02*
Y477512D01*
X648126D02*
X663874D01*
X648126Y466488D02*
X663874D01*
X654032Y472000D02*
X657969D01*
X656000Y470031D02*
Y473969D01*
X489126Y379488D02*
Y390512D01*
X504874Y379488D02*
Y390512D01*
X489126D02*
X504874D01*
X489126Y379488D02*
X504874D01*
X495031Y385000D02*
X498969D01*
X497000Y383032D02*
Y386968D01*
X611811Y234488D02*
Y245512D01*
X627559Y234488D02*
Y245512D01*
X611811D02*
X627559D01*
X611811Y234488D02*
X627559D01*
X617717Y240000D02*
X621654D01*
X619685Y238032D02*
Y241968D01*
X272150Y336543D02*
X315850D01*
X272150Y401504D02*
X315850D01*
X272150Y336543D02*
Y401504D01*
X315850Y336543D02*
Y401504D01*
X294000Y367055D02*
Y370992D01*
X292032Y369024D02*
X295969D01*
X566626Y304260D02*
Y311740D01*
X582374Y304260D02*
Y311740D01*
X566626D02*
X582374D01*
X566626Y304260D02*
X582374D01*
X572532Y308000D02*
X576469D01*
X574500Y306031D02*
Y309968D01*
X559626Y372760D02*
Y380240D01*
X575374Y372760D02*
Y380240D01*
X559626D02*
X575374D01*
X559626Y372760D02*
X575374D01*
X565531Y376500D02*
X569468D01*
X567500Y374532D02*
Y378468D01*
X560626Y342260D02*
Y349740D01*
X576374Y342260D02*
Y349740D01*
X560626D02*
X576374D01*
X560626Y342260D02*
X576374D01*
X566532Y346000D02*
X570469D01*
X568500Y344032D02*
Y347969D01*
X528441Y403760D02*
Y411240D01*
X544189Y403760D02*
Y411240D01*
X528441D02*
X544189D01*
X528441Y403760D02*
X544189D01*
X534346Y407500D02*
X538283D01*
X536315Y405532D02*
Y409469D01*
D21*
X318000Y433000D02*
D03*
X309000D02*
D03*
Y436000D02*
D03*
X318000Y439000D02*
D03*
X309000D02*
D03*
X318000Y442000D02*
D03*
X309000D02*
D03*
X318000Y445000D02*
D03*
X309000D02*
D03*
X318000Y436000D02*
D03*
D22*
X213870Y204000D02*
D03*
X224500D02*
D03*
X272870Y286500D02*
D03*
X283500D02*
D03*
X476370Y184000D02*
D03*
X487000D02*
D03*
X590500Y177000D02*
D03*
X601130D02*
D03*
X383685Y160500D02*
D03*
X394315D02*
D03*
X650685Y472000D02*
D03*
X661315D02*
D03*
X491685Y385000D02*
D03*
X502315D02*
D03*
X614370Y240000D02*
D03*
X625000D02*
D03*
D23*
X282500Y169047D02*
D03*
Y174953D02*
D03*
X287000Y133732D02*
D03*
Y139638D02*
D03*
X501000Y268453D02*
D03*
Y262547D02*
D03*
X315500Y135047D02*
D03*
Y140953D02*
D03*
X472000Y241047D02*
D03*
Y246953D02*
D03*
X344500Y134047D02*
D03*
Y139953D02*
D03*
D24*
X656232Y446000D02*
D03*
X662138D02*
D03*
X517953Y300500D02*
D03*
X512047D02*
D03*
X273362Y472000D02*
D03*
X279268D02*
D03*
X343453Y430000D02*
D03*
X337547D02*
D03*
X309547Y466000D02*
D03*
X315453D02*
D03*
X351047Y443000D02*
D03*
X356953D02*
D03*
D25*
X143332Y196510D02*
D03*
X149238D02*
D03*
X155143D02*
D03*
X161049D02*
D03*
X166954D02*
D03*
X172860D02*
D03*
X178765D02*
D03*
X184671D02*
D03*
X190576D02*
D03*
Y126490D02*
D03*
X184671D02*
D03*
X178765D02*
D03*
X172860D02*
D03*
X166954D02*
D03*
X161049D02*
D03*
X155143D02*
D03*
X149238D02*
D03*
X143332D02*
D03*
D26*
X284000Y342252D02*
D03*
X304000D02*
D03*
D27*
X294000Y383000D02*
D03*
D28*
X423744Y495484D02*
D03*
Y490760D02*
D03*
Y486035D02*
D03*
Y481311D02*
D03*
Y476587D02*
D03*
Y471862D02*
D03*
Y467138D02*
D03*
Y462413D02*
D03*
Y457689D02*
D03*
Y452965D02*
D03*
Y448240D02*
D03*
Y443516D02*
D03*
X379256D02*
D03*
Y448240D02*
D03*
Y452965D02*
D03*
Y457689D02*
D03*
Y462413D02*
D03*
Y467138D02*
D03*
Y471862D02*
D03*
Y476587D02*
D03*
Y481311D02*
D03*
Y486035D02*
D03*
Y490760D02*
D03*
Y495484D02*
D03*
D29*
X415673Y442925D02*
D03*
X410949D02*
D03*
X406224D02*
D03*
X401500D02*
D03*
X396776D02*
D03*
X392051D02*
D03*
X387327D02*
D03*
D30*
X466500Y388000D02*
D03*
Y383000D02*
D03*
Y378000D02*
D03*
Y373000D02*
D03*
Y368000D02*
D03*
Y363000D02*
D03*
Y358000D02*
D03*
X447600D02*
D03*
Y363000D02*
D03*
Y368000D02*
D03*
Y373000D02*
D03*
Y378000D02*
D03*
Y383000D02*
D03*
Y388000D02*
D03*
D31*
X613000Y129500D02*
D03*
X443500Y432000D02*
D03*
X311500Y413500D02*
D03*
X289000Y445000D02*
D03*
X285000Y423000D02*
D03*
X442500Y328000D02*
D03*
X414500Y398500D02*
D03*
X498500Y356500D02*
D03*
X499500Y410000D02*
D03*
D32*
X270500Y319000D02*
D03*
X325000Y484000D02*
D03*
X349500Y489000D02*
D03*
X245000Y164000D02*
D03*
X212500Y155500D02*
D03*
X382500Y412500D02*
D03*
D33*
X569185Y308000D02*
D03*
X579815D02*
D03*
X562185Y376500D02*
D03*
X572815D02*
D03*
X563185Y346000D02*
D03*
X573815D02*
D03*
X531000Y407500D02*
D03*
X541630D02*
D03*
D34*
X347071Y473000D02*
D03*
Y465323D02*
D03*
Y467882D02*
D03*
Y470441D02*
D03*
X339000Y465323D02*
D03*
Y473000D02*
D03*
Y470441D02*
D03*
Y467882D02*
D03*
M02*
