G04*
G04 #@! TF.GenerationSoftware,Altium Limited,Altium Designer,18.0.9 (584)*
G04*
G04 Layer_Color=16711935*
%FSLAX25Y25*%
%MOIN*%
G70*
G01*
G75*
%ADD47C,0.06706*%
%ADD48R,0.06706X0.06706*%
%ADD49R,0.06706X0.06706*%
%ADD50C,0.05800*%
%ADD51C,0.05743*%
D47*
X244800Y133200D02*
D03*
X254800D02*
D03*
X244800Y123200D02*
D03*
X254800D02*
D03*
X244800Y113200D02*
D03*
X72000Y42400D02*
D03*
Y52400D02*
D03*
X205200Y12800D02*
D03*
X215200D02*
D03*
X225200D02*
D03*
X235200D02*
D03*
X245200D02*
D03*
X250400Y207200D02*
D03*
X240400D02*
D03*
X230400D02*
D03*
X220400D02*
D03*
X210400D02*
D03*
X200400D02*
D03*
X190400D02*
D03*
X162000Y12800D02*
D03*
X152000D02*
D03*
X142000D02*
D03*
X132000D02*
D03*
X122000D02*
D03*
X112000D02*
D03*
X102000D02*
D03*
X152000Y207200D02*
D03*
X82000D02*
D03*
X92000D02*
D03*
X102000D02*
D03*
X112000D02*
D03*
X122000D02*
D03*
X132000D02*
D03*
X142000D02*
D03*
X162000D02*
D03*
D48*
X254800Y113200D02*
D03*
X72000Y32400D02*
D03*
D49*
X195200Y12800D02*
D03*
X260400Y207200D02*
D03*
X172000Y12800D02*
D03*
Y207200D02*
D03*
D50*
X177559Y122835D02*
D03*
X91200Y105600D02*
D03*
X80460Y114400D02*
D03*
X96000Y132000D02*
D03*
X87200D02*
D03*
X100000Y172800D02*
D03*
X112000Y43200D02*
D03*
X109600Y68000D02*
D03*
X187200Y77600D02*
D03*
X166400Y140800D02*
D03*
Y148800D02*
D03*
X173600Y112800D02*
D03*
X55258Y197658D02*
D03*
X127200Y164800D02*
D03*
X120000Y118400D02*
D03*
X96000Y100800D02*
D03*
X215200Y140800D02*
D03*
X212800Y133600D02*
D03*
X208000Y144800D02*
D03*
X116800Y181600D02*
D03*
X203200Y180800D02*
D03*
X214400Y92800D02*
D03*
X207200Y48000D02*
D03*
X216000Y112800D02*
D03*
X182400Y58400D02*
D03*
X256000Y160000D02*
D03*
X218400Y41600D02*
D03*
X159200Y60800D02*
D03*
X155275Y111925D02*
D03*
X196800Y50400D02*
D03*
X46400Y135200D02*
D03*
X4800Y202400D02*
D03*
X40000Y92000D02*
D03*
X46400Y117600D02*
D03*
X55200Y156800D02*
D03*
X143200Y153600D02*
D03*
X145600Y84000D02*
D03*
X103200Y196800D02*
D03*
X226400Y79200D02*
D03*
X213474Y77726D02*
D03*
X212000Y71200D02*
D03*
X250400Y173600D02*
D03*
X267200Y174400D02*
D03*
X202400Y68000D02*
D03*
X220000Y199200D02*
D03*
X230400D02*
D03*
X240000D02*
D03*
X131013Y76187D02*
D03*
X101193Y128393D02*
D03*
X65030Y98970D02*
D03*
X93600Y45600D02*
D03*
X132000Y20000D02*
D03*
X48000Y72000D02*
D03*
D51*
X25709Y132661D02*
D03*
Y115339D02*
D03*
M02*
