G04*
G04 #@! TF.GenerationSoftware,Altium Limited,Altium Designer,18.0.9 (584)*
G04*
G04 Layer_Physical_Order=2*
G04 Layer_Color=16711680*
%FSLAX25Y25*%
%MOIN*%
G70*
G01*
G75*
%ADD52C,0.01181*%
%ADD53C,0.02000*%
%ADD54C,0.05906*%
%ADD55R,0.05906X0.05906*%
%ADD56R,0.05906X0.05906*%
%ADD57C,0.05000*%
%ADD58C,0.04943*%
D52*
X159200Y81600D02*
Y156942D01*
X113742Y202400D02*
X159200Y156942D01*
X96800Y202400D02*
X113742D01*
X220000Y95200D02*
X232677Y82523D01*
Y74277D02*
Y82523D01*
X232000Y73600D02*
X232677Y74277D01*
X240000Y65354D02*
Y199200D01*
X205046Y65354D02*
X240000D01*
X202400Y68000D02*
X205046Y65354D01*
X177559Y122441D02*
Y122835D01*
Y122441D02*
X177600Y122400D01*
X159200Y81600D02*
X182400Y58400D01*
X163200Y150819D02*
Y161600D01*
X162709Y150329D02*
X163200Y150819D01*
X162709Y147271D02*
Y150329D01*
Y147271D02*
X163200Y146781D01*
Y142819D02*
Y146781D01*
X162709Y142329D02*
X163200Y142819D01*
X162709Y139271D02*
Y142329D01*
Y139271D02*
X163200Y138781D01*
Y101600D02*
Y138781D01*
Y101600D02*
X187200Y77600D01*
X167200Y149600D02*
X203200D01*
X166400Y148800D02*
X167200Y149600D01*
X89030Y132000D02*
X96000D01*
X87236Y133793D02*
X89030Y132000D01*
X87200D02*
Y133757D01*
X87236Y133793D01*
X199619Y48000D02*
X207200D01*
X198329Y46709D02*
X199619Y48000D01*
X160491Y46709D02*
X198329D01*
X131013Y76187D02*
X160491Y46709D01*
X166400Y140800D02*
X215200D01*
X173600Y112800D02*
X216000D01*
X147200Y177600D02*
X163200Y161600D01*
X147200Y177600D02*
Y209600D01*
X144800Y212000D02*
X147200Y209600D01*
X75200Y212000D02*
X144800D01*
X92000Y207200D02*
X96800Y202400D01*
X60858Y197658D02*
X75200Y212000D01*
X55258Y197658D02*
X60858D01*
X127200Y141600D02*
Y164800D01*
X120000Y134400D02*
X127200Y141600D01*
X120000Y118400D02*
Y134400D01*
X111200Y117600D02*
X125600Y103200D01*
X111200Y117600D02*
Y160800D01*
X125600Y103200D02*
X139200D01*
X96000Y100800D02*
X101193Y105993D01*
X108000Y104419D02*
Y182400D01*
Y104419D02*
X162019Y50400D01*
X188800Y133600D02*
X212800D01*
X177600Y122400D02*
X188800Y133600D01*
X220000Y95200D02*
Y199200D01*
X203200Y149600D02*
X208000Y144800D01*
X83200Y207200D02*
X108000Y182400D01*
X82000Y207200D02*
X83200D01*
X129600Y181600D02*
X143200Y168000D01*
X116800Y181600D02*
X129600D01*
X111200Y160800D02*
Y188800D01*
X103200Y196800D02*
X111200Y188800D01*
X214400Y88000D02*
Y92800D01*
X207200Y48000D02*
X250400D01*
X255200Y52800D01*
Y100000D01*
X260000Y104800D01*
Y128000D01*
X254800Y133200D02*
X260000Y128000D01*
X214400Y88000D02*
X223200Y79200D01*
X253600Y162400D02*
X256000Y160000D01*
X248800Y162400D02*
X253600D01*
X248000Y163200D02*
X248800Y162400D01*
X248000Y163200D02*
Y168800D01*
X248800Y169600D01*
X257600D01*
X264000Y163200D01*
Y102400D02*
Y163200D01*
X259200Y97600D02*
X264000Y102400D01*
X259200Y48800D02*
Y97600D01*
X252000Y41600D02*
X259200Y48800D01*
X218400Y41600D02*
X252000D01*
X234400Y13600D02*
Y14400D01*
Y13600D02*
X235200Y12800D01*
X217600Y73600D02*
X232000D01*
X213474Y77726D02*
X217600Y73600D01*
X162019Y50400D02*
X196800D01*
X40000Y92000D02*
X42709Y94709D01*
Y119129D01*
X46400Y122819D01*
Y135200D01*
X143200Y153600D02*
Y168000D01*
X139200Y90400D02*
Y103200D01*
Y90400D02*
X145600Y84000D01*
X212000Y71200D02*
X213600Y69600D01*
X234400D01*
X236000Y71200D01*
Y124800D01*
X223200Y79200D02*
X226400D01*
X226800Y78800D01*
X230400Y130400D02*
X236000Y124800D01*
X230400Y130400D02*
Y199200D01*
X266400Y173600D02*
X267200Y174400D01*
X250400Y173600D02*
X266400D01*
X201600Y68800D02*
X202400Y68000D01*
X113200Y21600D02*
X122000Y12800D01*
X96800Y21600D02*
X113200D01*
X84800Y33600D02*
X96800Y21600D01*
X84800Y33600D02*
Y49174D01*
X111813Y76187D01*
X119200Y20000D02*
X132000D01*
X93600Y45600D02*
X119200Y20000D01*
X111813Y76187D02*
X131013D01*
X101193Y105993D02*
Y128393D01*
X65030Y98970D02*
X80460Y114400D01*
D53*
X198498Y54500D02*
X198598Y54400D01*
X195102Y54500D02*
X198498D01*
X194902Y54300D02*
X195102Y54500D01*
X96000Y172800D02*
X100000D01*
X83200Y160000D02*
X96000Y172800D01*
X83200Y133798D02*
Y160000D01*
X83100Y133698D02*
X83200Y133798D01*
X83100Y126500D02*
Y133698D01*
Y126500D02*
X91200Y118400D01*
Y105600D02*
Y118400D01*
X109600Y45600D02*
X112000Y43200D01*
X109600Y45600D02*
Y68000D01*
X21600Y202400D02*
X34400Y215200D01*
X176000D01*
X180000Y211200D01*
Y204000D02*
Y211200D01*
Y204000D02*
X203200Y180800D01*
X250247Y57447D02*
Y127753D01*
X247200Y54400D02*
X250247Y57447D01*
X244800Y133200D02*
X250247Y127753D01*
X198598Y54400D02*
X247200D01*
X165700Y54300D02*
X194902D01*
X159200Y60800D02*
X165700Y54300D01*
X155275Y111925D02*
Y115925D01*
X155200Y116000D02*
X155275Y115925D01*
X150400Y116000D02*
X155200D01*
X150400Y69600D02*
Y116000D01*
Y69600D02*
X159200Y60800D01*
X4800Y202400D02*
X21600D01*
X59300Y164700D01*
Y155102D02*
Y164700D01*
X59200Y155002D02*
X59300Y155102D01*
X59200Y93600D02*
Y155002D01*
Y93600D02*
X79200Y73600D01*
Y50400D02*
Y73600D01*
X72000Y43200D02*
X79200Y50400D01*
X72000Y42400D02*
Y43200D01*
X55200Y126400D02*
Y156800D01*
X46400Y117600D02*
X55200Y126400D01*
X59200Y13600D02*
X65600Y7200D01*
X113600D01*
X60800Y4000D02*
X163200D01*
X59200Y13600D02*
Y29600D01*
X48000Y16800D02*
X60800Y4000D01*
X163200D02*
X172000Y12800D01*
X112000Y8800D02*
Y12800D01*
Y8800D02*
X113600Y7200D01*
X59200Y29600D02*
X72000Y42400D01*
X48000Y16800D02*
Y72000D01*
D54*
X244800Y133200D02*
D03*
X254800D02*
D03*
X244800Y123200D02*
D03*
X254800D02*
D03*
X244800Y113200D02*
D03*
X72000Y42400D02*
D03*
Y52400D02*
D03*
X205200Y12800D02*
D03*
X215200D02*
D03*
X225200D02*
D03*
X235200D02*
D03*
X245200D02*
D03*
X250400Y207200D02*
D03*
X240400D02*
D03*
X230400D02*
D03*
X220400D02*
D03*
X210400D02*
D03*
X200400D02*
D03*
X190400D02*
D03*
X162000Y12800D02*
D03*
X152000D02*
D03*
X142000D02*
D03*
X132000D02*
D03*
X122000D02*
D03*
X112000D02*
D03*
X102000D02*
D03*
X152000Y207200D02*
D03*
X82000D02*
D03*
X92000D02*
D03*
X102000D02*
D03*
X112000D02*
D03*
X122000D02*
D03*
X132000D02*
D03*
X142000D02*
D03*
X162000D02*
D03*
D55*
X254800Y113200D02*
D03*
X72000Y32400D02*
D03*
D56*
X195200Y12800D02*
D03*
X260400Y207200D02*
D03*
X172000Y12800D02*
D03*
Y207200D02*
D03*
D57*
X177559Y122835D02*
D03*
X91200Y105600D02*
D03*
X80460Y114400D02*
D03*
X96000Y132000D02*
D03*
X87200D02*
D03*
X100000Y172800D02*
D03*
X112000Y43200D02*
D03*
X109600Y68000D02*
D03*
X187200Y77600D02*
D03*
X166400Y140800D02*
D03*
Y148800D02*
D03*
X173600Y112800D02*
D03*
X55258Y197658D02*
D03*
X127200Y164800D02*
D03*
X120000Y118400D02*
D03*
X96000Y100800D02*
D03*
X215200Y140800D02*
D03*
X212800Y133600D02*
D03*
X208000Y144800D02*
D03*
X116800Y181600D02*
D03*
X203200Y180800D02*
D03*
X214400Y92800D02*
D03*
X207200Y48000D02*
D03*
X216000Y112800D02*
D03*
X182400Y58400D02*
D03*
X256000Y160000D02*
D03*
X218400Y41600D02*
D03*
X159200Y60800D02*
D03*
X155275Y111925D02*
D03*
X196800Y50400D02*
D03*
X46400Y135200D02*
D03*
X4800Y202400D02*
D03*
X40000Y92000D02*
D03*
X46400Y117600D02*
D03*
X55200Y156800D02*
D03*
X143200Y153600D02*
D03*
X145600Y84000D02*
D03*
X103200Y196800D02*
D03*
X226400Y79200D02*
D03*
X213474Y77726D02*
D03*
X212000Y71200D02*
D03*
X250400Y173600D02*
D03*
X267200Y174400D02*
D03*
X202400Y68000D02*
D03*
X220000Y199200D02*
D03*
X230400D02*
D03*
X240000D02*
D03*
X131013Y76187D02*
D03*
X101193Y128393D02*
D03*
X65030Y98970D02*
D03*
X93600Y45600D02*
D03*
X132000Y20000D02*
D03*
X48000Y72000D02*
D03*
D58*
X25709Y132661D02*
D03*
Y115339D02*
D03*
M02*
