G04*
G04 #@! TF.GenerationSoftware,Altium Limited,Altium Designer,18.0.9 (584)*
G04*
G04 Layer_Physical_Order=1*
G04 Layer_Color=255*
%FSLAX25Y25*%
%MOIN*%
G70*
G01*
G75*
%ADD19R,0.06693X0.04331*%
%ADD20R,0.06102X0.05118*%
%ADD21R,0.04331X0.06693*%
%ADD22O,0.06496X0.02165*%
%ADD23O,0.02165X0.06496*%
%ADD24R,0.07284X0.12598*%
%ADD25R,0.07284X0.03937*%
%ADD26R,0.03937X0.02756*%
%ADD27R,0.09843X0.01968*%
%ADD28R,0.05906X0.12598*%
%ADD29R,0.11811X0.01968*%
%ADD30R,0.09843X0.07874*%
%ADD31R,0.03937X0.01968*%
%ADD32O,0.01575X0.08858*%
%ADD52C,0.01181*%
%ADD53C,0.02000*%
%ADD54C,0.05906*%
%ADD55R,0.05906X0.05906*%
%ADD56R,0.05906X0.05906*%
%ADD57C,0.05000*%
%ADD58C,0.04943*%
D19*
X145600Y78915D02*
D03*
Y68285D02*
D03*
X86400Y83715D02*
D03*
Y73085D02*
D03*
X155275Y92285D02*
D03*
Y102915D02*
D03*
X55200Y37885D02*
D03*
Y48515D02*
D03*
X145600Y107485D02*
D03*
Y118115D02*
D03*
X132000Y108285D02*
D03*
Y118915D02*
D03*
X149600Y143715D02*
D03*
Y133085D02*
D03*
X135200Y144000D02*
D03*
Y133370D02*
D03*
X226400Y149885D02*
D03*
Y160515D02*
D03*
X213600Y149885D02*
D03*
Y160515D02*
D03*
X55200Y122115D02*
D03*
Y111485D02*
D03*
X54400Y132285D02*
D03*
Y142915D02*
D03*
D20*
X46850Y179942D02*
D03*
X15550D02*
D03*
X46850Y197658D02*
D03*
X15550D02*
D03*
D21*
X120383Y83200D02*
D03*
X131013D02*
D03*
X5085Y209600D02*
D03*
X15715D02*
D03*
X28285Y72000D02*
D03*
X38915D02*
D03*
X89885Y37600D02*
D03*
X100515D02*
D03*
X129315Y67200D02*
D03*
X118685D02*
D03*
X88230Y179200D02*
D03*
X77600D02*
D03*
X57085D02*
D03*
X67715D02*
D03*
X128515Y55200D02*
D03*
X117885D02*
D03*
X131013Y96000D02*
D03*
X120383D02*
D03*
X65885Y132000D02*
D03*
X76515D02*
D03*
X65085Y121600D02*
D03*
X75715D02*
D03*
X95715Y94400D02*
D03*
X85085D02*
D03*
X114115Y114400D02*
D03*
X103485D02*
D03*
X27715Y87200D02*
D03*
X17085D02*
D03*
D22*
X202135Y74576D02*
D03*
Y77726D02*
D03*
Y80876D02*
D03*
Y84025D02*
D03*
Y87175D02*
D03*
Y90324D02*
D03*
Y93474D02*
D03*
Y96624D02*
D03*
X169065D02*
D03*
Y93474D02*
D03*
Y90324D02*
D03*
Y87175D02*
D03*
Y84025D02*
D03*
Y80876D02*
D03*
Y77726D02*
D03*
Y74576D02*
D03*
D23*
X196624Y102135D02*
D03*
X193474D02*
D03*
X190324D02*
D03*
X187175D02*
D03*
X184025D02*
D03*
X180876D02*
D03*
X177726D02*
D03*
X174576D02*
D03*
Y69065D02*
D03*
X177726D02*
D03*
X180876D02*
D03*
X184025D02*
D03*
X187175D02*
D03*
X190324D02*
D03*
X193474D02*
D03*
X196624D02*
D03*
D24*
X13900Y48000D02*
D03*
D25*
X38900Y57055D02*
D03*
Y48000D02*
D03*
Y38945D02*
D03*
D26*
X93676Y51460D02*
D03*
Y58940D02*
D03*
X103124D02*
D03*
Y55200D02*
D03*
Y51460D02*
D03*
D27*
X226400Y95937D02*
D03*
Y92000D02*
D03*
Y88063D02*
D03*
D28*
X65030Y88800D02*
D03*
X54400Y88800D02*
D03*
D29*
X37835Y130299D02*
D03*
Y127150D02*
D03*
Y124000D02*
D03*
X37815Y120850D02*
D03*
Y117701D02*
D03*
D30*
X14410Y106480D02*
D03*
X35866D02*
D03*
X14410Y141520D02*
D03*
X35866D02*
D03*
D31*
X108000Y80800D02*
D03*
X100224Y78241D02*
D03*
Y83359D02*
D03*
D32*
X116193Y161284D02*
D03*
X113693D02*
D03*
X111194D02*
D03*
X108694D02*
D03*
X106193D02*
D03*
X103693D02*
D03*
X101193D02*
D03*
X98694D02*
D03*
X96193D02*
D03*
X93694D02*
D03*
X116193Y142584D02*
D03*
X113693D02*
D03*
X111194D02*
D03*
X108694D02*
D03*
X106193D02*
D03*
X103693D02*
D03*
X101193D02*
D03*
X98694D02*
D03*
X96193D02*
D03*
X93694D02*
D03*
D52*
X257874Y204674D02*
X260400Y207200D01*
X257874Y161074D02*
Y204674D01*
X256800Y160000D02*
X257874Y161074D01*
X262205Y187402D02*
X268000Y193197D01*
X262205Y135014D02*
Y187402D01*
Y135014D02*
X264491Y132729D01*
X268000Y193197D02*
Y212000D01*
X220400Y198800D02*
Y207200D01*
X198272Y54090D02*
X201109D01*
X188051Y64311D02*
X198272Y54090D01*
X188051Y64311D02*
Y68188D01*
X197280Y59019D02*
X204181D01*
X190324Y65975D02*
X197280Y59019D01*
X190324Y65975D02*
Y69065D01*
X251005Y62205D02*
X267200Y78400D01*
X198103Y62205D02*
X251005D01*
X193474Y66834D02*
X198103Y62205D01*
X193474Y66834D02*
Y69065D01*
X98135Y181600D02*
X116000D01*
X93694Y177158D02*
X98135Y181600D01*
X93694Y161284D02*
Y177158D01*
X173600Y112800D02*
Y151200D01*
X152000Y188800D02*
X181496Y159304D01*
Y105077D02*
Y159304D01*
X180876Y104456D02*
X181496Y105077D01*
X194095Y200894D02*
X200400Y207200D01*
X194095Y102756D02*
Y200894D01*
X193474Y102135D02*
X194095Y102756D01*
X164626Y43374D02*
Y75518D01*
Y43374D02*
X195200Y12800D01*
X164626Y75518D02*
X164926Y75818D01*
X104000Y86813D02*
X120000Y102813D01*
X104000Y80000D02*
Y86813D01*
X102241Y78241D02*
X104000Y80000D01*
X233600Y12800D02*
X235200D01*
X230400Y16000D02*
X233600Y12800D01*
X228800Y16000D02*
X230400D01*
X224543Y10657D02*
Y13457D01*
X218257Y16943D02*
X224543Y10657D01*
X227857Y16943D02*
X228800Y16000D01*
X223857Y16943D02*
X227857D01*
X224543Y13457D02*
X225200Y12800D01*
X215857Y16943D02*
X218257D01*
X80460Y114400D02*
X103485D01*
X96000Y132000D02*
Y142390D01*
X96193Y142584D01*
X92128Y122528D02*
Y136313D01*
X91200Y121600D02*
X92128Y122528D01*
X76515Y132000D02*
X87200D01*
X187175Y69065D02*
X187200Y69090D01*
Y77600D01*
X170091Y139271D02*
Y150709D01*
X169291Y138471D02*
X170091Y139271D01*
X169291Y96850D02*
Y138471D01*
X161600Y140800D02*
X166400D01*
X122000Y198800D02*
X170091Y150709D01*
X164800Y148800D02*
X166400D01*
X143911Y169689D02*
X164800Y148800D01*
X169065Y96624D02*
X169291Y96850D01*
X173600Y104800D02*
Y112800D01*
Y104800D02*
X174576Y103824D01*
X132000Y192800D02*
X173600Y151200D01*
X46850Y197658D02*
X55258D01*
X132000Y141080D02*
Y144515D01*
X126400Y128800D02*
X128145Y130545D01*
X116800Y128800D02*
X126400D01*
X108694Y136907D02*
X116800Y128800D01*
X128145Y137225D02*
X132000Y141080D01*
X128145Y130545D02*
Y137225D01*
X119709Y164800D02*
X126400D01*
X116193Y161284D02*
X119709Y164800D01*
X117627Y85573D02*
X117983Y85217D01*
X117627Y85573D02*
Y91108D01*
X120181Y93662D01*
X120000Y102813D02*
Y118400D01*
X120181Y93662D02*
Y96202D01*
X120383Y96000D01*
X100224Y78241D02*
X102241D01*
X116193Y142584D02*
X119200Y139577D01*
X120377Y138400D01*
X124000D01*
Y154400D01*
X130400Y160800D01*
X148800D01*
X152000Y157600D01*
Y150400D02*
Y157600D01*
Y150400D02*
X161600Y140800D01*
X216800D02*
X220000Y144000D01*
X177726Y102135D02*
Y156674D01*
X220800Y133600D02*
X240000Y152800D01*
X212800Y133600D02*
X220800D01*
X220000Y144000D02*
X226400D01*
Y149885D01*
X208515Y144800D02*
X213600Y149885D01*
X208000Y144800D02*
X208515D01*
X112000Y169689D02*
X143911D01*
X109216Y166904D02*
X112000Y169689D01*
X109216Y161806D02*
Y166904D01*
X108694Y161284D02*
X109216Y161806D01*
X109099Y153600D02*
X111194Y155694D01*
X104000Y153600D02*
X109099D01*
X101193Y150794D02*
X104000Y153600D01*
X101193Y142584D02*
Y150794D01*
X111194Y155694D02*
Y161284D01*
X196800Y50400D02*
X226400Y20800D01*
X184025Y63175D02*
X196800Y50400D01*
X213726Y93474D02*
X214400Y92800D01*
X215024Y96624D02*
X218400Y100000D01*
X202135Y96624D02*
X215024D01*
X201109Y54090D02*
X207200Y48000D01*
X187175Y69065D02*
X188051Y68188D01*
X218400Y41600D02*
Y44800D01*
X204181Y59019D02*
X218400Y44800D01*
X248800Y107200D02*
X254800Y113200D01*
X241600Y107200D02*
X248800D01*
X236000Y112800D02*
X241600Y107200D01*
X216000Y112800D02*
X236000D01*
X202135Y93474D02*
X213726D01*
X142000Y192400D02*
X177726Y156674D01*
X180876Y59924D02*
X182400Y58400D01*
X223857Y16943D01*
X256000Y160000D02*
X256800D01*
X226915D02*
X256000D01*
X214400Y173600D02*
X250400D01*
X212000Y171200D02*
X214400Y173600D01*
X244800Y123200D02*
X250400Y128800D01*
Y152000D01*
X164926Y75818D02*
Y77726D01*
X254800Y123200D02*
X256400Y121600D01*
X260800D01*
X264491Y125291D01*
Y132729D01*
X262400Y217600D02*
X268000Y212000D01*
X122400Y217600D02*
X262400D01*
X152000Y188800D02*
Y207200D01*
X142000Y192400D02*
Y207200D01*
X162000Y188400D02*
Y207200D01*
Y188400D02*
X184025Y166375D01*
X172000Y193600D02*
Y207200D01*
Y193600D02*
X187175Y178425D01*
X184025Y102135D02*
Y166375D01*
X187175Y102135D02*
Y178425D01*
X132000Y192800D02*
Y207200D01*
X190400Y102211D02*
Y207200D01*
X75200Y217600D02*
X122400D01*
Y207600D02*
Y217600D01*
X122000Y198800D02*
Y207200D01*
X174576Y102135D02*
Y103824D01*
X180876Y102135D02*
Y104456D01*
X240000Y152800D02*
X249600D01*
X250400Y152000D01*
X180876Y59924D02*
Y69065D01*
X226400Y20800D02*
X237200D01*
X184025Y63175D02*
Y69065D01*
X177726Y55074D02*
X215857Y16943D01*
X177726Y55074D02*
Y69065D01*
X42735Y135200D02*
X46400D01*
X37835Y130299D02*
X42735Y135200D01*
X32515Y92000D02*
X40000D01*
X27715Y87200D02*
X32515Y92000D01*
X27715Y87200D02*
X52800D01*
X54400Y88800D01*
X143200Y150115D02*
Y153600D01*
Y150115D02*
X149600Y143715D01*
X145600Y78915D02*
Y82400D01*
X102000Y198800D02*
X102400Y198400D01*
X102000Y198800D02*
Y207200D01*
X122000D02*
X122400Y207600D01*
X73600Y216000D02*
X75200Y217600D01*
X73600Y199200D02*
Y216000D01*
Y199200D02*
X88230Y184570D01*
Y179200D02*
Y184570D01*
X208624Y74576D02*
X212000Y71200D01*
X202135Y74576D02*
X208624D01*
X202135Y77726D02*
X213474D01*
X230400Y199200D02*
Y207200D01*
Y198400D02*
Y199200D01*
X267200Y78400D02*
Y173600D01*
X196624Y69065D02*
X197688Y68000D01*
X202400D01*
X237200Y20800D02*
X245200Y12800D01*
X240400Y199600D02*
Y207200D01*
X250400Y173600D02*
Y207200D01*
X164926Y77726D02*
X169065D01*
Y48935D02*
Y74576D01*
Y48935D02*
X205200Y12800D01*
X145600Y78915D02*
X151715D01*
X159975Y87175D01*
X196624Y102135D02*
X197600Y103112D01*
Y194400D01*
X210400Y207200D01*
X190324Y102135D02*
X190400Y102211D01*
X226400Y80800D02*
Y88063D01*
Y95937D02*
Y96800D01*
X223200Y100000D02*
X226400Y96800D01*
X218400Y100000D02*
X223200D01*
X212000Y162115D02*
X213600Y160515D01*
X212000Y162115D02*
Y171200D01*
X226400Y160515D02*
X226915Y160000D01*
X174576Y52624D02*
Y69065D01*
Y52624D02*
X214400Y12800D01*
X215200D01*
X131013Y76187D02*
Y83200D01*
X108694Y136907D02*
Y142584D01*
X103485Y114400D02*
X104884Y115799D01*
Y129922D01*
X103693Y131113D02*
X104884Y129922D01*
X103693Y131113D02*
Y142584D01*
X101193Y128393D02*
Y142584D01*
X95715Y94400D02*
Y100515D01*
X92128Y136313D02*
X93694Y137878D01*
Y142584D01*
X98694D02*
X101193D01*
X76515Y132000D02*
X76800Y132285D01*
X145600Y118115D02*
Y120800D01*
X149600Y124800D01*
Y133085D01*
X132000Y118915D02*
Y133885D01*
X159975Y87175D02*
X169065D01*
X117983Y80800D02*
Y85217D01*
X108000Y80800D02*
X117983D01*
X75715Y121600D02*
X91200D01*
X65030Y88800D02*
Y98970D01*
X95715Y94400D02*
X100224Y89890D01*
Y83359D02*
Y89890D01*
X99869Y83715D02*
X100224Y83359D01*
X86400Y83715D02*
X99869D01*
X100224Y75424D02*
Y78241D01*
X97885Y73085D02*
X100224Y75424D01*
X86400Y73085D02*
X97885D01*
X117885Y66400D02*
X118685Y67200D01*
X117885Y55200D02*
Y66400D01*
X93600Y51384D02*
X93676Y51460D01*
X93600Y45600D02*
Y51384D01*
X132000Y12800D02*
Y20000D01*
X100515Y37600D02*
X101600Y36515D01*
Y32000D02*
Y36515D01*
X100800Y31200D02*
X101600Y32000D01*
X90400Y31200D02*
X100800D01*
X90400Y7200D02*
Y31200D01*
Y7200D02*
X94400Y3200D01*
X129600D01*
X132000Y5600D01*
Y12800D01*
X65030Y74170D02*
Y88800D01*
Y74170D02*
X80800Y58400D01*
Y35200D02*
Y58400D01*
X78000Y32400D02*
X80800Y35200D01*
X72000Y32400D02*
X78000D01*
X37835Y127150D02*
X37885Y127200D01*
X52800D01*
X54400Y128800D01*
Y132285D01*
X37835Y124000D02*
X48000D01*
X49885Y122115D01*
X55200D01*
X55715Y121600D01*
X65085D01*
X65600Y132285D02*
X65885Y132000D01*
X54400Y132285D02*
X65600D01*
X67715Y179200D02*
X77600D01*
X15550Y209435D02*
X15715Y209600D01*
X15550Y197658D02*
Y209435D01*
Y197658D02*
X46850D01*
X68400Y48800D02*
X72000Y52400D01*
X55485Y48800D02*
X68400D01*
X55200Y48515D02*
X55485Y48800D01*
X13900Y48000D02*
X38900D01*
X54685D02*
X55200Y48515D01*
X38900Y48000D02*
X54685D01*
D53*
X85085Y99485D02*
X91200Y105600D01*
X92000Y106400D01*
X100000Y172800D02*
Y177600D01*
Y169721D02*
Y172800D01*
X112000Y106400D02*
X114115Y108515D01*
X92000Y106400D02*
X112000D01*
X109600Y68000D02*
X114400Y72800D01*
X103200Y61600D02*
X109600Y68000D01*
X103124Y51460D02*
X112000Y42584D01*
X114115Y108515D02*
Y114400D01*
X103693Y165803D02*
X103806Y165915D01*
X103693Y161284D02*
Y165803D01*
X100000Y177600D02*
X115002D01*
X100000Y169721D02*
X103806Y165915D01*
X118598Y177600D02*
X122400D01*
X118498Y177500D02*
X118598Y177600D01*
X115102Y177500D02*
X118498D01*
X115002Y177600D02*
X115102Y177500D01*
X122400Y177600D02*
Y188000D01*
X112000Y198400D02*
X122400Y188000D01*
X112000Y198400D02*
Y207200D01*
X203200Y127200D02*
Y180800D01*
Y127200D02*
X210400Y120000D01*
X238000D01*
X244800Y113200D01*
X215175Y87175D02*
X220000Y92000D01*
X212800Y87175D02*
X215175D01*
X159200Y68000D02*
Y76970D01*
Y61600D02*
Y68000D01*
X158915Y68285D02*
X159200Y68000D01*
X145600Y68285D02*
X158915D01*
X197287Y89858D02*
X202135D01*
X193671Y93474D02*
X197287Y89858D01*
X169065Y93474D02*
X193671D01*
X201669Y81343D02*
X202135Y80876D01*
X197287Y81343D02*
X201669D01*
X194605Y84025D02*
X197287Y81343D01*
X169065Y84025D02*
X194605D01*
X198859Y84492D02*
X202135D01*
Y89858D02*
Y90324D01*
X197287Y86064D02*
Y89858D01*
Y86064D02*
X198859Y84492D01*
X202135Y84025D02*
Y84492D01*
X159200Y76970D02*
X165788Y83558D01*
X155275Y102915D02*
Y111925D01*
X5085Y203485D02*
Y209600D01*
X39099Y117701D02*
X46299D01*
X46400Y117600D01*
X55200Y143715D02*
Y156800D01*
X54400Y142915D02*
X55200Y143715D01*
X206501Y80876D02*
X212800Y87175D01*
X202135Y80876D02*
X206501D01*
X155275Y92285D02*
X165066D01*
X165788Y93007D01*
X168598D01*
X169065Y93474D01*
X202135Y87175D02*
X212800D01*
X220000Y92000D02*
X226400D01*
X136000Y80800D02*
X147485Y92285D01*
X136000Y67200D02*
Y80800D01*
X147485Y92285D02*
X155275D01*
X129315Y67200D02*
X136000D01*
X145600Y101960D02*
Y107485D01*
Y101960D02*
X155275Y92285D01*
X132800Y107485D02*
X145600D01*
X132000Y108285D02*
X132800Y107485D01*
X131013Y96000D02*
X132000Y96987D01*
Y108285D01*
X114115Y114400D02*
Y124285D01*
X106193Y132206D02*
X114115Y124285D01*
X106193Y132206D02*
Y142584D01*
X86400Y55200D02*
X103124D01*
X84000Y52800D02*
X86400Y55200D01*
X84000Y51200D02*
Y52800D01*
Y51200D02*
X89500Y45700D01*
Y37985D02*
Y45700D01*
Y37985D02*
X89885Y37600D01*
X85085Y94400D02*
Y99485D01*
X128000Y54685D02*
X128515Y55200D01*
X128000Y48800D02*
Y54685D01*
X113600Y48800D02*
X128000D01*
X107200Y55200D02*
X113600Y48800D01*
X103124Y55200D02*
X107200D01*
X123715Y72800D02*
X129315Y67200D01*
X114400Y72800D02*
X123715D01*
X103200Y59016D02*
Y61600D01*
X103124Y58940D02*
X103200Y59016D01*
X112000Y19200D02*
Y42584D01*
X117600Y24800D02*
X136800D01*
X112000Y19200D02*
X117600Y24800D01*
X136800D02*
X142000Y19600D01*
X38915Y72000D02*
X48000D01*
X38915Y57070D02*
X38930Y57055D01*
X39745D01*
X38900D02*
X38930D01*
X39745D02*
X40000Y56800D01*
X38930Y57055D02*
X39185Y56800D01*
X40000D01*
X142000Y12800D02*
Y19600D01*
X112000Y12800D02*
Y19200D01*
X111200Y12000D02*
X112000Y12800D01*
X152000Y48800D02*
Y57600D01*
Y12800D02*
Y48800D01*
X145600Y55200D02*
X152000Y48800D01*
X128515Y55200D02*
X145600D01*
X152000Y12800D02*
X162000D01*
X145600Y64000D02*
Y68285D01*
Y64000D02*
X152000Y57600D01*
X78400Y94400D02*
X85085D01*
X61315Y111485D02*
X78400Y94400D01*
X52800Y34400D02*
X67200Y20000D01*
X52800Y34400D02*
Y35485D01*
X77600Y20000D02*
Y25315D01*
X67200Y20000D02*
X77600D01*
X52800Y35485D02*
X55200Y37885D01*
X77600Y25315D02*
X89885Y37600D01*
X54140Y38945D02*
X55200Y37885D01*
X38900Y38945D02*
X54140D01*
X55200Y111485D02*
X61315D01*
X14410Y141520D02*
X15550Y142661D01*
Y179942D01*
X37815Y117701D02*
X39099D01*
X45315Y111485D01*
X55200D01*
X52000Y179200D02*
X57085D01*
X51258Y179942D02*
X52000Y179200D01*
X46850Y179942D02*
X51258D01*
X15550D02*
X46850D01*
X46915Y142915D02*
X54400D01*
X45520Y141520D02*
X46915Y142915D01*
X35866Y141520D02*
X45520D01*
X55200Y108000D02*
Y111485D01*
X53680Y106480D02*
X55200Y108000D01*
X35866Y106480D02*
X53680D01*
X14410Y141520D02*
X35866D01*
X14410Y106480D02*
X35866D01*
X14410Y96790D02*
Y106480D01*
Y96790D02*
X17085Y94115D01*
Y87200D02*
Y94115D01*
X12000Y87200D02*
X17085D01*
X7200Y82400D02*
X12000Y87200D01*
X7200Y29600D02*
Y82400D01*
Y29600D02*
X11200Y25600D01*
X34400D01*
X37600Y28800D01*
Y37645D01*
X38900Y38945D01*
X38915Y57070D02*
Y72000D01*
X17085Y74115D02*
Y87200D01*
Y74115D02*
X19200Y72000D01*
X28285D01*
D54*
X244800Y133200D02*
D03*
X254800D02*
D03*
X244800Y123200D02*
D03*
X254800D02*
D03*
X244800Y113200D02*
D03*
X72000Y42400D02*
D03*
Y52400D02*
D03*
X205200Y12800D02*
D03*
X215200D02*
D03*
X225200D02*
D03*
X235200D02*
D03*
X245200D02*
D03*
X250400Y207200D02*
D03*
X240400D02*
D03*
X230400D02*
D03*
X220400D02*
D03*
X210400D02*
D03*
X200400D02*
D03*
X190400D02*
D03*
X162000Y12800D02*
D03*
X152000D02*
D03*
X142000D02*
D03*
X132000D02*
D03*
X122000D02*
D03*
X112000D02*
D03*
X102000D02*
D03*
X152000Y207200D02*
D03*
X82000D02*
D03*
X92000D02*
D03*
X102000D02*
D03*
X112000D02*
D03*
X122000D02*
D03*
X132000D02*
D03*
X142000D02*
D03*
X162000D02*
D03*
D55*
X254800Y113200D02*
D03*
X72000Y32400D02*
D03*
D56*
X195200Y12800D02*
D03*
X260400Y207200D02*
D03*
X172000Y12800D02*
D03*
Y207200D02*
D03*
D57*
X177559Y122835D02*
D03*
X91200Y105600D02*
D03*
X80460Y114400D02*
D03*
X96000Y132000D02*
D03*
X87200D02*
D03*
X100000Y172800D02*
D03*
X112000Y43200D02*
D03*
X109600Y68000D02*
D03*
X187200Y77600D02*
D03*
X166400Y140800D02*
D03*
Y148800D02*
D03*
X173600Y112800D02*
D03*
X55258Y197658D02*
D03*
X127200Y164800D02*
D03*
X120000Y118400D02*
D03*
X96000Y100800D02*
D03*
X215200Y140800D02*
D03*
X212800Y133600D02*
D03*
X208000Y144800D02*
D03*
X116800Y181600D02*
D03*
X203200Y180800D02*
D03*
X214400Y92800D02*
D03*
X207200Y48000D02*
D03*
X216000Y112800D02*
D03*
X182400Y58400D02*
D03*
X256000Y160000D02*
D03*
X218400Y41600D02*
D03*
X159200Y60800D02*
D03*
X155275Y111925D02*
D03*
X196800Y50400D02*
D03*
X46400Y135200D02*
D03*
X4800Y202400D02*
D03*
X40000Y92000D02*
D03*
X46400Y117600D02*
D03*
X55200Y156800D02*
D03*
X143200Y153600D02*
D03*
X145600Y84000D02*
D03*
X103200Y196800D02*
D03*
X226400Y79200D02*
D03*
X213474Y77726D02*
D03*
X212000Y71200D02*
D03*
X250400Y173600D02*
D03*
X267200Y174400D02*
D03*
X202400Y68000D02*
D03*
X220000Y199200D02*
D03*
X230400D02*
D03*
X240000D02*
D03*
X131013Y76187D02*
D03*
X101193Y128393D02*
D03*
X65030Y98970D02*
D03*
X93600Y45600D02*
D03*
X132000Y20000D02*
D03*
X48000Y72000D02*
D03*
D58*
X25709Y132661D02*
D03*
Y115339D02*
D03*
M02*
