G04*
G04 #@! TF.GenerationSoftware,Altium Limited,Altium Designer,18.0.9 (584)*
G04*
G04 Layer_Color=128*
%FSLAX25Y25*%
%MOIN*%
G70*
G01*
G75*
%ADD59C,0.00200*%
D59*
X243028Y133200D02*
X246572D01*
X244800Y131428D02*
Y134972D01*
X253028Y133200D02*
X256572D01*
X254800Y131428D02*
Y134972D01*
X243028Y123200D02*
X246572D01*
X244800Y121428D02*
Y124972D01*
X253028Y123200D02*
X256572D01*
X254800Y121428D02*
Y124972D01*
X243028Y113200D02*
X246572D01*
X244800Y111428D02*
Y114972D01*
X253028Y113200D02*
X256572D01*
X254800Y111428D02*
Y114972D01*
X70228Y32400D02*
X73772D01*
X72000Y30628D02*
Y34172D01*
X70228Y42400D02*
X73772D01*
X72000Y40628D02*
Y44172D01*
X70228Y52400D02*
X73772D01*
X72000Y50628D02*
Y54172D01*
X193428Y12800D02*
X196972D01*
X195200Y11028D02*
Y14572D01*
X203428Y12800D02*
X206972D01*
X205200Y11028D02*
Y14572D01*
X213428Y12800D02*
X216972D01*
X215200Y11028D02*
Y14572D01*
X223428Y12800D02*
X226972D01*
X225200Y11028D02*
Y14572D01*
X233428Y12800D02*
X236972D01*
X235200Y11028D02*
Y14572D01*
X243428Y12800D02*
X246972D01*
X245200Y11028D02*
Y14572D01*
X258628Y207200D02*
X262172D01*
X260400Y205428D02*
Y208972D01*
X248628Y207200D02*
X252172D01*
X250400Y205428D02*
Y208972D01*
X238628Y207200D02*
X242172D01*
X240400Y205428D02*
Y208972D01*
X228628Y207200D02*
X232172D01*
X230400Y205428D02*
Y208972D01*
X218628Y207200D02*
X222172D01*
X220400Y205428D02*
Y208972D01*
X208628Y207200D02*
X212172D01*
X210400Y205428D02*
Y208972D01*
X198628Y207200D02*
X202172D01*
X200400Y205428D02*
Y208972D01*
X188628Y207200D02*
X192172D01*
X190400Y205428D02*
Y208972D01*
X170228Y12800D02*
X173772D01*
X172000Y11028D02*
Y14572D01*
X160228Y12800D02*
X163772D01*
X162000Y11028D02*
Y14572D01*
X150228Y12800D02*
X153772D01*
X152000Y11028D02*
Y14572D01*
X140228Y12800D02*
X143772D01*
X142000Y11028D02*
Y14572D01*
X130228Y12800D02*
X133772D01*
X132000Y11028D02*
Y14572D01*
X120228Y12800D02*
X123772D01*
X122000Y11028D02*
Y14572D01*
X110228Y12800D02*
X113772D01*
X112000Y11028D02*
Y14572D01*
X100228Y12800D02*
X103772D01*
X102000Y11028D02*
Y14572D01*
X150228Y207200D02*
X153772D01*
X152000Y205428D02*
Y208972D01*
X80228Y207200D02*
X83772D01*
X82000Y205428D02*
Y208972D01*
X90228Y207200D02*
X93772D01*
X92000Y205428D02*
Y208972D01*
X100228Y207200D02*
X103772D01*
X102000Y205428D02*
Y208972D01*
X110228Y207200D02*
X113772D01*
X112000Y205428D02*
Y208972D01*
X120228Y207200D02*
X123772D01*
X122000Y205428D02*
Y208972D01*
X130228Y207200D02*
X133772D01*
X132000Y205428D02*
Y208972D01*
X140228Y207200D02*
X143772D01*
X142000Y205428D02*
Y208972D01*
X160228Y207200D02*
X163772D01*
X162000Y205428D02*
Y208972D01*
X170228Y207200D02*
X173772D01*
X172000Y205428D02*
Y208972D01*
X176159Y122835D02*
X178959D01*
X177559Y121435D02*
Y124235D01*
X89800Y105600D02*
X92600D01*
X91200Y104200D02*
Y107000D01*
X79060Y114400D02*
X81860D01*
X80460Y113000D02*
Y115800D01*
X94600Y132000D02*
X97400D01*
X96000Y130600D02*
Y133400D01*
X85800Y132000D02*
X88600D01*
X87200Y130600D02*
Y133400D01*
X98600Y172800D02*
X101400D01*
X100000Y171400D02*
Y174200D01*
X110600Y43200D02*
X113400D01*
X112000Y41800D02*
Y44600D01*
X108200Y68000D02*
X111000D01*
X109600Y66600D02*
Y69400D01*
X185800Y77600D02*
X188600D01*
X187200Y76200D02*
Y79000D01*
X165000Y140800D02*
X167800D01*
X166400Y139400D02*
Y142200D01*
X165000Y148800D02*
X167800D01*
X166400Y147400D02*
Y150200D01*
X172200Y112800D02*
X175000D01*
X173600Y111400D02*
Y114200D01*
X53858Y197658D02*
X56658D01*
X55258Y196258D02*
Y199058D01*
X125800Y164800D02*
X128600D01*
X127200Y163400D02*
Y166200D01*
X118600Y118400D02*
X121400D01*
X120000Y117000D02*
Y119800D01*
X94600Y100800D02*
X97400D01*
X96000Y99400D02*
Y102200D01*
X213800Y140800D02*
X216600D01*
X215200Y139400D02*
Y142200D01*
X211400Y133600D02*
X214200D01*
X212800Y132200D02*
Y135000D01*
X206600Y144800D02*
X209400D01*
X208000Y143400D02*
Y146200D01*
X115400Y181600D02*
X118200D01*
X116800Y180200D02*
Y183000D01*
X201800Y180800D02*
X204600D01*
X203200Y179400D02*
Y182200D01*
X213000Y92800D02*
X215800D01*
X214400Y91400D02*
Y94200D01*
X205800Y48000D02*
X208600D01*
X207200Y46600D02*
Y49400D01*
X214600Y112800D02*
X217400D01*
X216000Y111400D02*
Y114200D01*
X181000Y58400D02*
X183800D01*
X182400Y57000D02*
Y59800D01*
X254600Y160000D02*
X257400D01*
X256000Y158600D02*
Y161400D01*
X217000Y41600D02*
X219800D01*
X218400Y40200D02*
Y43000D01*
X157800Y60800D02*
X160600D01*
X159200Y59400D02*
Y62200D01*
X153875Y111925D02*
X156675D01*
X155275Y110525D02*
Y113325D01*
X195400Y50400D02*
X198200D01*
X196800Y49000D02*
Y51800D01*
X45000Y135200D02*
X47800D01*
X46400Y133800D02*
Y136600D01*
X3400Y202400D02*
X6200D01*
X4800Y201000D02*
Y203800D01*
X38600Y92000D02*
X41400D01*
X40000Y90600D02*
Y93400D01*
X45000Y117600D02*
X47800D01*
X46400Y116200D02*
Y119000D01*
X53800Y156800D02*
X56600D01*
X55200Y155400D02*
Y158200D01*
X141800Y153600D02*
X144600D01*
X143200Y152200D02*
Y155000D01*
X144200Y84000D02*
X147000D01*
X145600Y82600D02*
Y85400D01*
X101800Y196800D02*
X104600D01*
X103200Y195400D02*
Y198200D01*
X225000Y79200D02*
X227800D01*
X226400Y77800D02*
Y80600D01*
X212074Y77726D02*
X214874D01*
X213474Y76326D02*
Y79126D01*
X210600Y71200D02*
X213400D01*
X212000Y69800D02*
Y72600D01*
X249000Y173600D02*
X251800D01*
X250400Y172200D02*
Y175000D01*
X265800Y174400D02*
X268600D01*
X267200Y173000D02*
Y175800D01*
X201000Y68000D02*
X203800D01*
X202400Y66600D02*
Y69400D01*
X218600Y199200D02*
X221400D01*
X220000Y197800D02*
Y200600D01*
X229000Y199200D02*
X231800D01*
X230400Y197800D02*
Y200600D01*
X238600Y199200D02*
X241400D01*
X240000Y197800D02*
Y200600D01*
X129613Y76187D02*
X132413D01*
X131013Y74787D02*
Y77587D01*
X99793Y128393D02*
X102594D01*
X101193Y126994D02*
Y129794D01*
X63630Y98970D02*
X66430D01*
X65030Y97570D02*
Y100370D01*
X92200Y45600D02*
X95000D01*
X93600Y44200D02*
Y47000D01*
X130600Y20000D02*
X133400D01*
X132000Y18600D02*
Y21400D01*
X46600Y72000D02*
X49400D01*
X48000Y70600D02*
Y73400D01*
X23937Y132661D02*
X27480D01*
X25709Y130890D02*
Y134433D01*
X23937Y115339D02*
X27480D01*
X25709Y113567D02*
Y117110D01*
M02*
